<?xml version="1.0" encoding="UTF-8"?>
<svg xmlns="http://www.w3.org/2000/svg" version="1.1" xmlns:xlink="http://www.w3.org/1999/xlink" viewBox="0 0 1920 1080">
  <!-- Generator: Adobe Illustrator 29.0.0, SVG Export Plug-In . SVG Version: 2.1.0 Build 186)  -->
  <defs>
    <style>
      .st0 {
        fill: url(#linear-gradient20);
      }

      .st0, .st1, .st2, .st3, .st4, .st5, .st6, .st7, .st8, .st9, .st10, .st11, .st12, .st13, .st14, .st15, .st16, .st17, .st18, .st19, .st20, .st21, .st22, .st23, .st24, .st25, .st26, .st27, .st28, .st29, .st30, .st31, .st32, .st33, .st34, .st35, .st36, .st37, .st38 {
        isolation: isolate;
      }

      .st0, .st1, .st2, .st7, .st9, .st14, .st32 {
        opacity: .2;
      }

      .st1 {
        fill: url(#linear-gradient8);
      }

      .st39 {
        stroke-width: 1.3px;
      }

      .st39, .st40, .st41, .st42, .st43, .st44, .st45, .st46, .st47, .st48, .st49, .st50, .st51, .st52, .st53, .st54, .st55, .st56, .st57, .st58, .st59, .st60, .st61, .st62, .st63, .st64 {
        fill: none;
      }

      .st39, .st40, .st41, .st42, .st43, .st45, .st46, .st47, .st48, .st49, .st50, .st51, .st52, .st53, .st54, .st55, .st56, .st57, .st58, .st59, .st60, .st61, .st62, .st63, .st64 {
        stroke: #4d4d4d;
        stroke-miterlimit: 10;
      }

      .st2 {
        fill: url(#linear-gradient16);
      }

      .st3 {
        fill: url(#radial-gradient4);
      }

      .st3, .st10, .st19, .st27, .st28, .st29, .st35 {
        mix-blend-mode: color-dodge;
      }

      .st4 {
        fill: url(#linear-gradient7);
      }

      .st4, .st12, .st17, .st26, .st31, .st34, .st38 {
        opacity: .1;
      }

      .st40 {
        stroke-width: 1px;
      }

      .st41 {
        stroke-width: .7px;
      }

      .st5 {
        fill: url(#linear-gradient18);
      }

      .st5, .st8, .st20, .st21, .st24, .st25, .st37 {
        opacity: .8;
      }

      .st6 {
        fill: url(#linear-gradient25);
      }

      .st6, .st11, .st15, .st16, .st18, .st23, .st30 {
        opacity: 0;
      }

      .st7 {
        fill: url(#linear-gradient12);
      }

      .st8 {
        fill: url(#linear-gradient10);
      }

      .st9 {
        fill: url(#linear-gradient24);
      }

      .st10 {
        fill: url(#radial-gradient5);
      }

      .st11 {
        fill: url(#linear-gradient21);
      }

      .st42 {
        stroke-width: .9px;
      }

      .st43 {
        stroke-width: .8px;
      }

      .st12 {
        fill: url(#linear-gradient15);
      }

      .st13 {
        font-size: 11.1px;
        letter-spacing: .6em;
      }

      .st13, .st65, .st33, .st36 {
        font-family: FzPoppins-SemiBold, 'Fz Poppins';
        font-weight: 600;
      }

      .st13, .st36, .st66 {
        fill: #ec6629;
      }

      .st14 {
        fill: url(#linear-gradient);
      }

      .st15 {
        fill: url(#linear-gradient1);
      }

      .st45 {
        stroke-width: 1.1px;
      }

      .st16 {
        fill: url(#linear-gradient13);
      }

      .st17 {
        fill: url(#linear-gradient19);
      }

      .st67 {
        opacity: .7;
      }

      .st68 {
        clip-path: url(#clippath-1);
      }

      .st18 {
        fill: url(#linear-gradient5);
      }

      .st46 {
        stroke-width: 1.1px;
      }

      .st19 {
        fill: url(#radial-gradient6);
      }

      .st20 {
        fill: url(#linear-gradient6);
      }

      .st21 {
        fill: url(#linear-gradient14);
      }

      .st47 {
        stroke-width: 1.6px;
      }

      .st23 {
        fill: url(#linear-gradient9);
      }

      .st48 {
        stroke-width: .5px;
      }

      .st49 {
        stroke-width: 1.2px;
      }

      .st24 {
        fill: url(#linear-gradient26);
      }

      .st25 {
        fill: url(#linear-gradient2);
      }

      .st50 {
        stroke-width: 1.5px;
      }

      .st51 {
        stroke-width: 1.6px;
      }

      .st69 {
        fill: #070200;
      }

      .st52 {
        stroke-width: .8px;
      }

      .st26 {
        fill: url(#linear-gradient23);
      }

      .st70 {
        opacity: .9;
      }

      .st27 {
        fill: url(#radial-gradient3);
      }

      .st53 {
        stroke-width: 1.5px;
      }

      .st28 {
        fill: url(#radial-gradient);
      }

      .st65 {
        font-size: 13.9px;
        letter-spacing: .6em;
      }

      .st65, .st33 {
        fill: #fff;
      }

      .st29 {
        fill: url(#radial-gradient1);
      }

      .st54 {
        stroke-width: 1.4px;
      }

      .st71 {
        mix-blend-mode: overlay;
      }

      .st55 {
        stroke-width: 1px;
      }

      .st56 {
        stroke-width: .6px;
      }

      .st30 {
        fill: url(#linear-gradient17);
      }

      .st31 {
        fill: url(#linear-gradient11);
      }

      .st57 {
        stroke-width: .9px;
      }

      .st32 {
        fill: url(#linear-gradient4);
      }

      .st58 {
        stroke-width: .8px;
      }

      .st33 {
        font-size: 18.8px;
        letter-spacing: .6em;
      }

      .st59 {
        stroke-width: .6px;
      }

      .st60 {
        stroke-width: 1.4px;
      }

      .st34 {
        fill: url(#linear-gradient27);
      }

      .st61 {
        stroke-width: 1.3px;
      }

      .st35 {
        fill: url(#radial-gradient2);
      }

      .st62 {
        stroke-width: .7px;
      }

      .st36 {
        font-size: 15.3px;
        letter-spacing: .6em;
      }

      .st37 {
        fill: url(#linear-gradient22);
      }

      .st72 {
        clip-path: url(#clippath);
      }

      .st38 {
        fill: url(#linear-gradient3);
      }

      .st63 {
        stroke-width: 1.2px;
      }

      .st64 {
        stroke-width: 1.3px;
      }
    </style>
    <linearGradient id="linear-gradient" x1="319.2" y1="517.5" x2="381.8" y2="517.5" gradientTransform="translate(0 1100) scale(1 -1)" gradientUnits="userSpaceOnUse">
      <stop offset="0" stop-color="#fff"/>
      <stop offset="1" stop-color="#000"/>
    </linearGradient>
    <linearGradient id="linear-gradient1" x1="-4273.4" y1="496.2" x2="-4234.4" y2="496.2" gradientTransform="translate(-3903.3 1100) rotate(-180)" gradientUnits="userSpaceOnUse">
      <stop offset="0" stop-color="#fff"/>
      <stop offset=".5" stop-color="#000"/>
      <stop offset="1" stop-color="#fff"/>
    </linearGradient>
    <linearGradient id="linear-gradient2" x1="318.1" y1="517.4" x2="383" y2="517.4" gradientTransform="translate(0 1100) scale(1 -1)" gradientUnits="userSpaceOnUse">
      <stop offset="0" stop-color="#474747"/>
      <stop offset=".4" stop-color="#fff"/>
      <stop offset="1" stop-color="#474747"/>
    </linearGradient>
    <linearGradient id="linear-gradient3" x1="322.7" y1="533.2" x2="377.9" y2="533.2" gradientTransform="translate(0 1100) scale(1 -1)" gradientUnits="userSpaceOnUse">
      <stop offset="0" stop-color="#fff"/>
      <stop offset="1" stop-color="#000"/>
    </linearGradient>
    <radialGradient id="radial-gradient" cx="324.8" cy="541" fx="324.8" fy="541" r="12.6" gradientTransform="translate(0 1100) scale(1 -1)" gradientUnits="userSpaceOnUse">
      <stop offset="0" stop-color="#b3b3b3"/>
      <stop offset="0" stop-color="#ababab"/>
      <stop offset="0" stop-color="#838383"/>
      <stop offset=".2" stop-color="#5f5f5f"/>
      <stop offset=".2" stop-color="#414141"/>
      <stop offset=".3" stop-color="#292929"/>
      <stop offset=".4" stop-color="#161616"/>
      <stop offset=".5" stop-color="#090909"/>
      <stop offset=".7" stop-color="#020202"/>
      <stop offset="1" stop-color="#000"/>
    </radialGradient>
    <linearGradient id="linear-gradient4" x1="732.8" y1="322.9" x2="795.4" y2="322.9" gradientTransform="translate(0 1100) scale(1 -1)" gradientUnits="userSpaceOnUse">
      <stop offset="0" stop-color="#fff"/>
      <stop offset="1" stop-color="#000"/>
    </linearGradient>
    <linearGradient id="linear-gradient5" x1="-4687" y1="301.5" x2="-4648" y2="301.5" gradientTransform="translate(-3903.3 1100) rotate(-180)" gradientUnits="userSpaceOnUse">
      <stop offset="0" stop-color="#fff"/>
      <stop offset=".5" stop-color="#000"/>
      <stop offset="1" stop-color="#fff"/>
    </linearGradient>
    <linearGradient id="linear-gradient6" x1="731.7" y1="322.7" x2="796.6" y2="322.7" gradientTransform="translate(0 1100) scale(1 -1)" gradientUnits="userSpaceOnUse">
      <stop offset="0" stop-color="#474747"/>
      <stop offset=".4" stop-color="#fff"/>
      <stop offset="1" stop-color="#474747"/>
    </linearGradient>
    <linearGradient id="linear-gradient7" x1="736.3" y1="338.6" x2="791.5" y2="338.6" gradientTransform="translate(0 1100) scale(1 -1)" gradientUnits="userSpaceOnUse">
      <stop offset="0" stop-color="#fff"/>
      <stop offset="1" stop-color="#000"/>
    </linearGradient>
    <radialGradient id="radial-gradient1" cx="738.4" cy="346.3" fx="738.4" fy="346.3" r="12.6" gradientTransform="translate(0 1100) scale(1 -1)" gradientUnits="userSpaceOnUse">
      <stop offset="0" stop-color="#b3b3b3"/>
      <stop offset="0" stop-color="#ababab"/>
      <stop offset="0" stop-color="#838383"/>
      <stop offset=".2" stop-color="#5f5f5f"/>
      <stop offset=".2" stop-color="#414141"/>
      <stop offset=".3" stop-color="#292929"/>
      <stop offset=".4" stop-color="#161616"/>
      <stop offset=".5" stop-color="#090909"/>
      <stop offset=".7" stop-color="#020202"/>
      <stop offset="1" stop-color="#000"/>
    </radialGradient>
    <linearGradient id="linear-gradient8" x1="820" y1="594.8" x2="882.6" y2="594.8" gradientTransform="translate(0 1100) scale(1 -1)" gradientUnits="userSpaceOnUse">
      <stop offset="0" stop-color="#fff"/>
      <stop offset="1" stop-color="#000"/>
    </linearGradient>
    <linearGradient id="linear-gradient9" x1="-4774.1" y1="573.5" x2="-4735.2" y2="573.5" gradientTransform="translate(-3903.3 1100) rotate(-180)" gradientUnits="userSpaceOnUse">
      <stop offset="0" stop-color="#fff"/>
      <stop offset=".5" stop-color="#000"/>
      <stop offset="1" stop-color="#fff"/>
    </linearGradient>
    <linearGradient id="linear-gradient10" x1="818.9" y1="594.7" x2="883.7" y2="594.7" gradientTransform="translate(0 1100) scale(1 -1)" gradientUnits="userSpaceOnUse">
      <stop offset="0" stop-color="#474747"/>
      <stop offset=".4" stop-color="#fff"/>
      <stop offset="1" stop-color="#474747"/>
    </linearGradient>
    <linearGradient id="linear-gradient11" x1="823.5" y1="610.6" x2="878.6" y2="610.6" gradientTransform="translate(0 1100) scale(1 -1)" gradientUnits="userSpaceOnUse">
      <stop offset="0" stop-color="#fff"/>
      <stop offset="1" stop-color="#000"/>
    </linearGradient>
    <radialGradient id="radial-gradient2" cx="825.5" cy="618.3" fx="825.5" fy="618.3" r="12.6" gradientTransform="translate(0 1100) scale(1 -1)" gradientUnits="userSpaceOnUse">
      <stop offset="0" stop-color="#b3b3b3"/>
      <stop offset="0" stop-color="#ababab"/>
      <stop offset="0" stop-color="#838383"/>
      <stop offset=".2" stop-color="#5f5f5f"/>
      <stop offset=".2" stop-color="#414141"/>
      <stop offset=".3" stop-color="#292929"/>
      <stop offset=".4" stop-color="#161616"/>
      <stop offset=".5" stop-color="#090909"/>
      <stop offset=".7" stop-color="#020202"/>
      <stop offset="1" stop-color="#000"/>
    </radialGradient>
    <linearGradient id="linear-gradient12" x1="192" y1="312.4" x2="254.7" y2="312.4" gradientTransform="translate(0 1100) scale(1 -1)" gradientUnits="userSpaceOnUse">
      <stop offset="0" stop-color="#fff"/>
      <stop offset="1" stop-color="#000"/>
    </linearGradient>
    <linearGradient id="linear-gradient13" x1="-4146.2" y1="291.1" x2="-4107.2" y2="291.1" gradientTransform="translate(-3903.3 1100) rotate(-180)" gradientUnits="userSpaceOnUse">
      <stop offset="0" stop-color="#fff"/>
      <stop offset=".5" stop-color="#000"/>
      <stop offset="1" stop-color="#fff"/>
    </linearGradient>
    <linearGradient id="linear-gradient14" x1="190.9" y1="312.3" x2="255.8" y2="312.3" gradientTransform="translate(0 1100) scale(1 -1)" gradientUnits="userSpaceOnUse">
      <stop offset="0" stop-color="#474747"/>
      <stop offset=".4" stop-color="#fff"/>
      <stop offset="1" stop-color="#474747"/>
    </linearGradient>
    <linearGradient id="linear-gradient15" x1="195.5" y1="328.2" x2="250.7" y2="328.2" gradientTransform="translate(0 1100) scale(1 -1)" gradientUnits="userSpaceOnUse">
      <stop offset="0" stop-color="#fff"/>
      <stop offset="1" stop-color="#000"/>
    </linearGradient>
    <radialGradient id="radial-gradient3" cx="197.6" cy="335.9" fx="197.6" fy="335.9" r="12.6" gradientTransform="translate(0 1100) scale(1 -1)" gradientUnits="userSpaceOnUse">
      <stop offset="0" stop-color="#b3b3b3"/>
      <stop offset="0" stop-color="#ababab"/>
      <stop offset="0" stop-color="#838383"/>
      <stop offset=".2" stop-color="#5f5f5f"/>
      <stop offset=".2" stop-color="#414141"/>
      <stop offset=".3" stop-color="#292929"/>
      <stop offset=".4" stop-color="#161616"/>
      <stop offset=".5" stop-color="#090909"/>
      <stop offset=".7" stop-color="#020202"/>
      <stop offset="1" stop-color="#000"/>
    </radialGradient>
    <linearGradient id="linear-gradient16" x1="1129.8" y1="350" x2="1192.4" y2="350" gradientTransform="translate(0 1100) scale(1 -1)" gradientUnits="userSpaceOnUse">
      <stop offset="0" stop-color="#fff"/>
      <stop offset="1" stop-color="#000"/>
    </linearGradient>
    <linearGradient id="linear-gradient17" x1="-5083.9" y1="328.7" x2="-5044.9" y2="328.7" gradientTransform="translate(-3903.3 1100) rotate(-180)" gradientUnits="userSpaceOnUse">
      <stop offset="0" stop-color="#fff"/>
      <stop offset=".5" stop-color="#000"/>
      <stop offset="1" stop-color="#fff"/>
    </linearGradient>
    <linearGradient id="linear-gradient18" x1="1128.6" y1="349.9" x2="1193.5" y2="349.9" gradientTransform="translate(0 1100) scale(1 -1)" gradientUnits="userSpaceOnUse">
      <stop offset="0" stop-color="#474747"/>
      <stop offset=".4" stop-color="#fff"/>
      <stop offset="1" stop-color="#474747"/>
    </linearGradient>
    <linearGradient id="linear-gradient19" x1="1133.2" y1="365.8" x2="1188.4" y2="365.8" gradientTransform="translate(0 1100) scale(1 -1)" gradientUnits="userSpaceOnUse">
      <stop offset="0" stop-color="#fff"/>
      <stop offset="1" stop-color="#000"/>
    </linearGradient>
    <radialGradient id="radial-gradient4" cx="1135.3" cy="373.5" fx="1135.3" fy="373.5" r="12.6" gradientTransform="translate(0 1100) scale(1 -1)" gradientUnits="userSpaceOnUse">
      <stop offset="0" stop-color="#b3b3b3"/>
      <stop offset="0" stop-color="#ababab"/>
      <stop offset="0" stop-color="#838383"/>
      <stop offset=".2" stop-color="#5f5f5f"/>
      <stop offset=".2" stop-color="#414141"/>
      <stop offset=".3" stop-color="#292929"/>
      <stop offset=".4" stop-color="#161616"/>
      <stop offset=".5" stop-color="#090909"/>
      <stop offset=".7" stop-color="#020202"/>
      <stop offset="1" stop-color="#000"/>
    </radialGradient>
    <clipPath id="clippath">
      <rect class="st44" y="112.6" width="1281.8" height="978.1"/>
    </clipPath>
    <clipPath id="clippath-1">
      <rect class="st44" x="1281.8" y="112.6" width="638.2" height="978.1"/>
    </clipPath>
    <linearGradient id="linear-gradient20" x1="1469" y1="297.4" x2="1531.6" y2="297.4" xlink:href="#linear-gradient4"/>
    <linearGradient id="linear-gradient21" x1="-5423.1" y1="276.1" x2="-5384.1" y2="276.1" xlink:href="#linear-gradient5"/>
    <linearGradient id="linear-gradient22" x1="1467.8" y1="297.3" x2="1532.7" y2="297.3" xlink:href="#linear-gradient6"/>
    <linearGradient id="linear-gradient23" x1="1472.4" y1="313.2" x2="1527.6" y2="313.2" xlink:href="#linear-gradient4"/>
    <radialGradient id="radial-gradient5" cx="1474.5" cy="320.9" fx="1474.5" fy="320.9" r="12.6" xlink:href="#radial-gradient"/>
    <linearGradient id="linear-gradient24" x1="1597.8" y1="513.9" x2="1660.4" y2="513.9" xlink:href="#linear-gradient4"/>
    <linearGradient id="linear-gradient25" x1="-5551.9" y1="492.6" x2="-5513" y2="492.6" xlink:href="#linear-gradient5"/>
    <linearGradient id="linear-gradient26" x1="1596.7" y1="513.8" x2="1661.5" y2="513.8" xlink:href="#linear-gradient6"/>
    <linearGradient id="linear-gradient27" x1="1601.3" y1="529.6" x2="1656.4" y2="529.6" xlink:href="#linear-gradient4"/>
    <radialGradient id="radial-gradient6" cx="1603.3" cy="537.4" fx="1603.3" fy="537.4" r="12.6" xlink:href="#radial-gradient"/>
  </defs>
  <g class="st22">
    <g id="Layer_1">
      <g class="st22">
        <g id="Layer_11" data-name="Layer_1">
          <g class="st71">
            <rect width="1920" height="1090.7"/>
          </g>
          <g>
            <g>
              <g>
                <path class="st66" d="M359.7,584.4h.2c-3.6-2.8-7.5-2.8-7.5-2.8,0,0-3.9,0-7.5,2.8h-.2c-1,.8-2,1.8-2.9,3.1,2.4,1.9,5.7,3.3,10.4,3.3s8.1-1.4,10.4-3.3c-.9-1.3-1.9-2.4-2.9-3.1Z"/>
                <path class="st66" d="M373.9,575h-.2c0-.4,0-.8,0-1.2h-.2c-.2-2.3-.8-4.5-1.7-6.5h-.5c-.8-1.8-1.9-3.5-3.1-5h.5c-.6-.7-1.1-1.3-1.8-1.9h.3c-3.8-3.5-8.9-5.7-14.5-5.7s-10.7,2.2-14.5,5.7h-.3c-.6.6-1.2,1.2-1.8,1.9h-.5c-1.3,1.5-2.3,3.2-3.1,5h.5c-.9,2-1.5,4.2-1.7,6.5h.2c0,.4,0,.8,0,1.2h.2c0,.3,0,.7,0,1,0,1.4.1,2.8.4,4.2h-.4c.3,1.4.7,2.8,1.3,4.2,1,2.4,2.5,4.6,4.3,6.5h-.3c1.7,1.7,3.6,3.1,5.7,4.2h.3c2.9,1.4,6.1,2.2,9.5,2.2s6.7-.8,9.5-2.2h-.3c2.1-1.1,4-2.5,5.7-4.2h.1c1.8-1.9,3.3-4.1,4.3-6.5h.2c.6-1.3,1-2.7,1.3-4.2h.4c.3-1.4.4-2.8.4-4.2s0-.7,0-1h0ZM362.7,569.2c0,2-1.1,3.6-2.5,3.6s-2.5-1.6-2.5-3.6.1-1.3.4-1.9h-.5c.4-1,1.3-1.7,2.2-1.7s1.7.7,2.2,1.7h.5c.2.6.4,1.2.4,1.9h0ZM343.8,565.6c.9,0,1.7.7,2.2,1.7h.5c.2.6.4,1.2.4,1.9,0,2-1.1,3.6-2.5,3.6s-2.5-1.6-2.5-3.6.1-1.3.4-1.9h-.5c.4-1,1.3-1.7,2.2-1.7h0ZM367.9,580.2c-.2.9-.7,2.5-1.7,4.2h-.2c-1.4,2.4-3.7,5-7.6,6.5h-.1c-1.8.7-3.9,1.1-6.4,1.1s-4.6-.4-6.4-1.1h.3c-3.9-1.4-6.2-4.1-7.6-6.5-1-1.7-1.5-3.2-1.7-4.2h.4c-.1-.6-.2-.9-.2-.9h31.7s0,.3-.2.9h-.4Z"/>
              </g>
              <g>
                <path class="st66" d="M356.5,582.9h.2c-3.6-2.8-7.5-2.8-7.5-2.8,0,0-3.9,0-7.5,2.8h-.2c-1,.8-2,1.8-2.9,3.1,2.4,1.9,5.7,3.3,10.4,3.3s8.1-1.4,10.4-3.3c-.9-1.3-1.9-2.4-2.9-3.1Z"/>
                <path class="st66" d="M370.6,573.5h-.2c0-.4,0-.8,0-1.2h-.2c-.2-2.3-.8-4.5-1.7-6.5h-.5c-.8-1.8-1.9-3.5-3.1-5h.5c-.6-.7-1.1-1.3-1.8-1.9h.3c-3.8-3.5-8.9-5.7-14.5-5.7s-10.7,2.2-14.5,5.7h-.3c-.6.6-1.2,1.2-1.8,1.9h-.5c-1.3,1.5-2.3,3.2-3.1,5h.5c-.9,2-1.5,4.2-1.7,6.5h.2c0,.4,0,.8,0,1.2h.2c0,.3,0,.7,0,1,0,1.4.1,2.8.4,4.2h-.4c.3,1.4.7,2.8,1.3,4.2,1,2.4,2.5,4.6,4.3,6.5h-.3c1.7,1.7,3.6,3.1,5.7,4.2h.3c2.9,1.4,6.1,2.2,9.5,2.2s6.7-.8,9.5-2.2h-.3c2.1-1.1,4-2.5,5.7-4.2h.1c1.8-1.9,3.3-4.1,4.3-6.5h.2c.6-1.3,1-2.7,1.3-4.2h.4c.3-1.4.4-2.8.4-4.2s0-.7,0-1h0Z"/>
              </g>
              <g>
                <path d="M358,583.7h.2c-3.6-2.8-7.5-2.8-7.5-2.8,0,0-3.9,0-7.5,2.8h-.2c-1,.8-2,1.8-2.9,3.1,2.4,1.9,5.7,3.3,10.4,3.3s8.1-1.4,10.4-3.3c-.9-1.3-1.9-2.4-2.9-3.1Z"/>
                <path d="M372.1,574.3h-.2c0-.4,0-.8,0-1.2h-.2c-.2-2.3-.8-4.5-1.7-6.5h-.5c-.8-1.8-1.9-3.5-3.1-5h.5c-.6-.7-1.1-1.3-1.8-1.9h.3c-3.8-3.5-8.9-5.7-14.5-5.7s-10.7,2.2-14.5,5.7h-.3c-.6.6-1.2,1.2-1.8,1.9h-.5c-1.3,1.5-2.3,3.2-3.1,5h.5c-.9,2-1.5,4.2-1.7,6.5h.2c0,.4,0,.8,0,1.2h.2c0,.3,0,.7,0,1,0,1.4.1,2.8.4,4.2h-.4c.3,1.4.7,2.8,1.3,4.2,1,2.4,2.5,4.6,4.3,6.5h-.3c1.7,1.7,3.6,3.1,5.7,4.2h.3c2.9,1.4,6.1,2.2,9.5,2.2s6.7-.8,9.5-2.2h-.3c2.1-1.1,4-2.5,5.7-4.2h.1c1.8-1.9,3.3-4.1,4.3-6.5h.2c.6-1.3,1-2.7,1.3-4.2h.4c.3-1.4.4-2.8.4-4.2s0-.7,0-1h0ZM361,568.4c0,2-1.1,3.6-2.5,3.6s-2.5-1.6-2.5-3.6.1-1.3.4-1.9h-.5c.4-1,1.3-1.7,2.2-1.7s1.7.7,2.2,1.7h.5c.2.6.4,1.2.4,1.9h0ZM342,564.8c.9,0,1.7.7,2.2,1.7h.5c.2.6.4,1.2.4,1.9,0,2-1.1,3.6-2.5,3.6s-2.5-1.6-2.5-3.6.1-1.3.4-1.9h-.5c.4-1,1.3-1.7,2.2-1.7h0ZM366.1,579.5c-.2.9-.7,2.5-1.7,4.2h-.2c-1.4,2.4-3.7,5-7.6,6.5h-.1c-1.8.7-3.9,1.1-6.4,1.1s-4.6-.4-6.4-1.1h.3c-3.9-1.4-6.2-4.1-7.6-6.5-1-1.7-1.5-3.2-1.7-4.2h.4c-.1-.6-.2-.9-.2-.9h31.7s0,.3-.2.9h-.4Z"/>
              </g>
            </g>
            <g>
              <g>
                <path class="st14" d="M372.7,553.9h0c-12.2-12.2-32-12.2-44.3,0h0c-12.2,12.2-12.2,32,0,44.3l22.1,22.1,22.1-22.1c12.2-12.2,12.2-32,0-44.3h0Z"/>
                <path class="st15" d="M331.1,596.7c.1.1.3.3.4.4l19.2,19.2,18.9-18.9c.3-.6.4-1.1.4-1.7,0-2.1-1.6-4.2-3.7-4.5-1.8-.3-3.7.6-5,1.8-1.4,1.3-2.3,2.9-3.4,4.4-1.7,2.4-3.6,4.6-6.2,6.1-2.5,1.5-5.6,2.1-8.4,1.2-3.8-1.3-6.1-5.1-9.5-7.3-.8-.5-1.8-.9-2.8-.8h0Z"/>
                <g class="st67">
                  <path class="st25" d="M350.5,621.8l-22.9-22.9c-6.1-6.1-9.5-14.3-9.5-22.9s3.4-16.8,9.5-22.9c6.1-6.1,14.3-9.5,22.9-9.5s16.8,3.4,22.9,9.5l-.5.5.5-.5c6.1,6.1,9.5,14.3,9.5,22.9s-3.4,16.8-9.5,22.9l-22.9,22.9ZM350.5,545c-8.3,0-16.1,3.2-21.9,9.1-12.1,12.1-12.1,31.7,0,43.8l21.9,21.9,21.9-21.9c12.1-12.1,12.1-31.7,0-43.8-5.8-5.8-13.6-9.1-21.9-9.1Z"/>
                </g>
                <path class="st38" d="M377.9,575.4c0,1.1,0,2.2-.2,3.3-1.3-3.4-3.6-6.4-6.6-8.4-6.1-4-14.7-3.7-20.5.8-3.3,2.5-5.5,6.1-8.3,9.1-2.7,2.9-6.4,5.6-10.6,5.3-3.4-.3-6.5-2.7-7.9-5.9-3.3-7.2,1.3-17.2,6.2-22.7,5.2-5.7,12.7-9,20.4-9,15.2,0,27.5,12.3,27.5,27.5h0Z"/>
              </g>
              <circle class="st28" cx="324.8" cy="559" r="12.6"/>
            </g>
          </g>
          <g>
            <g>
              <g>
                <g>
                  <polygon class="st66" points="781.1 764.6 780.7 762.4 780.7 762.3 780.1 762.4 778.4 762.7 778.8 765 781.1 764.6"/>
                  <rect class="st66" x="780.5" y="759.8" width="2.3" height="2.3" transform="translate(-117.4 143.1) rotate(-9.7)"/>
                  <rect class="st66" x="758.5" y="758.5" width="2.3" height="2.3" transform="translate(-159 202.7) rotate(-13.8)"/>
                  <polygon class="st66" points="757.2 763.9 759.5 763.3 759.3 762.4 758.9 761.1 756.7 761.6 756.9 762.4 757.2 763.9"/>
                  <path class="st66" d="M773.5,779.7h.3c-3.5-2.5-7.1-2.4-7.1-2.4,0,0-3.6,0-7.1,2.4h-.3c-1.2.8-2.4,2-3.4,3.6,1.1.9,2.3,1.6,3.9,2.2h0c1.8.7,4,1.1,6.7,1.1s4.8-.4,6.7-1.1h0c1.5-.6,2.8-1.4,3.9-2.2-1-1.6-2.2-2.7-3.4-3.6h0Z"/>
                  <path class="st66" d="M787.3,767.1h-.3c0-.4-.2-.8-.3-1.2h.4c-.3-1-.7-2.1-1.1-3,0-.1,0-.3.1-.4h-.6c.1-.4.2-.8.3-1.2.2-1.6-.2-3.1-1.2-4.4,0,0,0,0,0,0h-.1c-.5-.7-1.2-1.2-1.9-1.6h.6c-.6-.3-1.3-.5-1.9-.6-.3,0-.5,0-.8,0s-.6,0-.9,0c-1.4-1.1-2.8-1.9-4.4-2.7h-.9c-2.7-1.2-5.7-1.9-8.8-1.9s-6.1.7-8.8,1.9h.9c-1.6.7-3.1,1.6-4.4,2.7-.3,0-.6,0-.9,0s-.5,0-.8,0c-.7,0-1.4.3-1.9.6h-.4c-.8.4-1.4.9-1.9,1.6h0s0,0,0,0c-1,1.2-1.4,2.8-1.2,4.4s.1.8.3,1.2h0s.4,0,.4,0c0,.1,0,.3.1.4-.4,1-.8,2-1.1,3h-.2c-.1.4-.2.8-.3,1.2h.3c-.3,1.5-.5,3-.5,4.5s0,.7,0,1.1c0,1.4.3,2.8.6,4.1h-.3c.3,1,.6,2,1,2.9.8,2.1,2,4.1,3.5,5.8h-.5c2.2,2.7,5.1,4.8,8.4,6.1h.9c2.5,1,5.2,1.6,8.1,1.6s5.6-.6,8.1-1.6h-.9c3.3-1.3,6.1-3.4,8.4-6.1h.3c1.4-1.7,2.6-3.7,3.5-5.8h.2c.4-.9.7-1.9,1-2.9h.3c.3-1.3.5-2.7.6-4.1,0-.3,0-.7,0-1.1,0-1.6-.2-3.1-.5-4.5h0ZM774.6,754.5c.7,0,1.4.3,2,.7h-.6c.4.2.8.5,1.1.8,0,0,.2-.1.3-.2,0,0,.1,0,.2,0,0,0,0,0,.1,0,0,0,.2,0,.2,0,0,0,0,0,0,0,0,0,.2,0,.3,0h0c.1,0,.2,0,.3,0h0c.3,0,.7-.1,1-.1h.1c.2,0,.4,0,.7,0,1.2.2,2.2.7,3,1.5h.1c1.1,1.1,1.7,2.7,1.5,4.3,0,.4-.1.7-.2,1,0,0,0,.2,0,.3h.6c-.5,1.3-1.2,2.5-2.2,3.4h-.4c-.4.5-.9.9-1.4,1.2h.3c-2.7,2.1-5.8,3.1-5.8,3.1,0,0-1.9-1.1-3.7-3.1h-.3c-.4-.4-.7-.8-1.1-1.2h.4c-.8-1-1.5-2.2-1.9-3.4h-.6c-.3-.8-.4-1.5-.5-2.4,0-.3,0-.7,0-1.1.1-.8.4-1.5.8-2.2.4-.7,1-1.2,1.7-1.6h.5c.8-.5,1.7-.7,2.7-.7s.4,0,.7,0h0ZM749.2,765.9h.2c-.9-1-1.7-2.1-2.2-3.4h-.4c0,0,0-.2,0-.3,0-.1,0-.2,0-.3,0-.2-.1-.5-.1-.7-.2-1.7.4-3.2,1.5-4.3h0c.8-.8,1.8-1.3,3-1.5.2,0,.4,0,.7,0h.1c.3,0,.7,0,1,.1h0c.1,0,.2,0,.3,0h0c0,0,.2,0,.3,0,0,0,0,0,0,0,0,0,.2,0,.2,0,0,0,0,0,.1,0,0,0,.1,0,.2,0,.1,0,.2.1.3.2.3-.3.7-.6,1.1-.8h.4c.6-.4,1.3-.6,2-.7.2,0,.4,0,.7,0,1,0,1.9.3,2.7.7h-.5c.7.4,1.2.9,1.7,1.6.4.6.7,1.4.8,2.2,0,.4,0,.7,0,1.1,0,.8-.2,1.6-.5,2.4h.6c-.4,1.3-1.1,2.4-1.9,3.4h-.4c-.3.4-.7.8-1.1,1.2h.3c-1.8,1.9-3.7,3.1-3.7,3.1,0,0-3.1-1-5.8-3.1h-.3c-.5-.4-.9-.8-1.4-1.2h0Z"/>
                </g>
                <g>
                  <polygon class="st66" points="778 763.4 777.6 761.2 777.6 761.1 777 761.2 775.3 761.5 775.7 763.7 778 763.4"/>
                  <rect class="st66" x="777.4" y="758.5" width="2.3" height="2.3" transform="translate(-117.2 142.5) rotate(-9.7)"/>
                  <rect class="st66" x="755.5" y="757.3" width="2.3" height="2.3" transform="translate(-158.8 201.9) rotate(-13.8)"/>
                  <polygon class="st66" points="754.1 762.6 756.4 762 756.2 761.2 755.8 759.8 753.6 760.3 753.8 761.2 754.1 762.6"/>
                  <path class="st66" d="M770.4,778.4h.3c-3.5-2.5-7.1-2.4-7.1-2.4,0,0-3.6,0-7.1,2.4h-.3c-1.2.8-2.4,2-3.4,3.6,1.1.9,2.3,1.6,3.9,2.2h0c1.8.7,4,1.1,6.7,1.1s4.8-.4,6.7-1.1h0c1.5-.6,2.8-1.4,3.9-2.2-1-1.6-2.2-2.7-3.4-3.6h0Z"/>
                  <path class="st66" d="M784.2,765.8h-.3c0-.4-.2-.8-.3-1.2h.4c-.3-1-.7-2.1-1.1-3,0-.1,0-.3.1-.4h-.6c.1-.4.2-.8.3-1.2.2-1.6-.2-3.1-1.2-4.4,0,0,0,0,0,0h-.1c-.5-.7-1.2-1.2-1.9-1.6h.6c-.6-.3-1.3-.5-1.9-.6-.3,0-.5,0-.8,0s-.6,0-.9,0c-1.4-1.1-2.8-1.9-4.4-2.7h-.9c-2.7-1.2-5.7-1.9-8.8-1.9s-6.1.7-8.8,1.9h.9c-1.6.7-3.1,1.6-4.4,2.7-.3,0-.6,0-.9,0s-.5,0-.8,0c-.7,0-1.4.3-1.9.6h-.4c-.8.4-1.4.9-1.9,1.6h0s0,0,0,0c-1,1.2-1.4,2.8-1.2,4.4s.1.8.3,1.2h0s.4,0,.4,0c0,.1,0,.3.1.4-.4,1-.8,2-1.1,3h-.2c-.1.4-.2.8-.3,1.2h.3c-.3,1.5-.5,3-.5,4.5s0,.7,0,1.1c0,1.4.3,2.8.6,4.1h-.3c.3,1,.6,2,1,2.9.8,2.1,2,4.1,3.5,5.8h-.5c2.2,2.7,5.1,4.8,8.4,6.1h.9c2.5,1,5.2,1.6,8.1,1.6s5.6-.6,8.1-1.6h-.9c3.3-1.3,6.1-3.4,8.4-6.1h.3c1.4-1.7,2.6-3.7,3.5-5.8h.2c.4-.9.7-1.9,1-2.9h.3c.3-1.3.5-2.7.6-4.1,0-.3,0-.7,0-1.1,0-1.6-.2-3.1-.5-4.5h0ZM779.2,775.5c-.3.8-.7,1.8-1.3,2.9h-.2c-1.1,2-2.8,4.2-5.5,5.8h-.3c-2.2,1.3-5.1,2.2-8.9,2.2s-6.7-.9-8.9-2.2h.5c-2.7-1.6-4.4-3.8-5.5-5.8-.6-1.1-1-2.1-1.3-2.9h.3c-.3-1.1-.5-1.8-.5-1.8h32.1s-.1.7-.5,1.8h-.3,0ZM771.5,753.3c.7,0,1.4.3,2,.7h-.6c.4.2.8.5,1.1.8,0,0,.2-.1.3-.2,0,0,.1,0,.2,0,0,0,0,0,.1,0,0,0,.2,0,.2,0,0,0,0,0,0,0,0,0,.2,0,.3,0h0c.1,0,.2,0,.3,0h0c.3,0,.7-.1,1-.1h.1c.2,0,.4,0,.7,0,1.2.2,2.2.7,3,1.5h.1c1.1,1.1,1.7,2.7,1.5,4.3,0,.4-.1.7-.2,1,0,0,0,.2,0,.3h.6c-.5,1.3-1.2,2.5-2.2,3.4h-.4c-.4.5-.9.9-1.4,1.2h.3c-2.7,2.1-5.8,3.1-5.8,3.1,0,0-1.9-1.1-3.7-3.1h-.3c-.4-.4-.7-.8-1.1-1.2h.4c-.8-1-1.5-2.2-1.9-3.4h-.6c-.3-.8-.4-1.5-.5-2.4,0-.3,0-.7,0-1.1.1-.8.4-1.5.8-2.2.4-.7,1-1.2,1.7-1.6h.5c.8-.5,1.7-.7,2.7-.7s.4,0,.7,0h0ZM746.1,764.6h.2c-.9-1-1.7-2.1-2.2-3.4h-.4c0,0,0-.2,0-.3,0-.1,0-.2,0-.3,0-.2-.1-.5-.1-.7-.2-1.7.4-3.2,1.5-4.3h0c.8-.8,1.8-1.3,3-1.5.2,0,.4,0,.7,0h.1c.3,0,.7,0,1,.1h0c.1,0,.2,0,.3,0h0c0,0,.2,0,.3,0,0,0,0,0,0,0,0,0,.2,0,.2,0,0,0,0,0,.1,0,0,0,.1,0,.2,0,.1,0,.2.1.3.2.3-.3.7-.6,1.1-.8h.4c.6-.4,1.3-.6,2-.7.2,0,.4,0,.7,0,1,0,1.9.3,2.7.7h-.5c.7.4,1.2.9,1.7,1.6.4.6.7,1.4.8,2.2,0,.4,0,.7,0,1.1,0,.8-.2,1.6-.5,2.4h.6c-.4,1.3-1.1,2.4-1.9,3.4h-.4c-.3.4-.7.8-1.1,1.2h.3c-1.8,1.9-3.7,3.1-3.7,3.1,0,0-3.1-1-5.8-3.1h-.3c-.5-.4-.9-.8-1.4-1.2h0Z"/>
                </g>
              </g>
              <g>
                <polygon class="st69" points="755.3 763.1 757.6 762.6 757.4 761.7 757 760.3 754.8 760.9 755 761.7 755.3 763.1"/>
                <rect class="st69" x="778.6" y="759.1" width="2.3" height="2.3" transform="translate(-117.3 142.7) rotate(-9.7)"/>
                <polygon class="st69" points="779.2 763.9 778.9 761.7 778.8 761.6 778.2 761.7 776.5 762 776.9 764.3 779.2 763.9"/>
                <rect class="st69" x="756.7" y="757.8" width="2.3" height="2.3" transform="translate(-158.9 202.2) rotate(-13.8)"/>
                <path class="st69" d="M771.6,779h.3c-3.5-2.5-7.1-2.4-7.1-2.4,0,0-3.6,0-7.1,2.4h-.3c-1.2.8-2.4,2-3.4,3.6,1.1.9,2.3,1.6,3.9,2.2h0c1.8.7,4,1.1,6.7,1.1s4.8-.4,6.7-1.1h0c1.5-.6,2.8-1.4,3.9-2.2-1-1.6-2.2-2.7-3.4-3.6h0Z"/>
                <path class="st69" d="M785.5,766.3h-.3c0-.4-.2-.8-.3-1.2h.4c-.3-1-.7-2.1-1.1-3,0-.1,0-.3.1-.4h-.6c.1-.4.2-.8.3-1.2.2-1.6-.2-3.1-1.2-4.4,0,0,0,0,0,0h-.1c-.5-.7-1.2-1.2-1.9-1.6h.6c-.6-.3-1.3-.5-1.9-.6-.3,0-.5,0-.8,0s-.6,0-.9,0c-1.4-1.1-2.8-1.9-4.4-2.7h-.9c-2.7-1.2-5.7-1.9-8.8-1.9s-6.1.7-8.8,1.9h.9c-1.6.7-3.1,1.6-4.4,2.7-.3,0-.6,0-.9,0s-.5,0-.8,0c-.7,0-1.4.3-1.9.6h-.4c-.8.4-1.4.9-1.9,1.6h0s0,0,0,0c-1,1.2-1.4,2.8-1.2,4.4s.1.8.3,1.2h0s.4,0,.4,0c0,.1,0,.3.1.4-.4,1-.8,2-1.1,3h-.2c-.1.4-.2.8-.3,1.2h.3c-.3,1.5-.5,3-.5,4.5s0,.7,0,1.1c0,1.4.3,2.8.6,4.1h-.3c.3,1,.6,2,1,2.9.8,2.1,2,4.1,3.5,5.8h-.5c2.2,2.7,5.1,4.8,8.4,6.1h.9c2.5,1,5.2,1.6,8.1,1.6s5.6-.6,8.1-1.6h-.9c3.3-1.3,6.1-3.4,8.4-6.1h.3c1.4-1.7,2.6-3.7,3.5-5.8h.2c.4-.9.7-1.9,1-2.9h.3c.3-1.3.5-2.7.6-4.1,0-.3,0-.7,0-1.1,0-1.6-.2-3.1-.5-4.5h0ZM780.4,776c-.3.8-.7,1.8-1.3,2.9h-.2c-1.1,2-2.8,4.2-5.5,5.8h-.3c-2.2,1.3-5.1,2.2-8.9,2.2s-6.7-.9-8.9-2.2h.5c-2.7-1.6-4.4-3.8-5.5-5.8-.6-1.1-1-2.1-1.3-2.9h.3c-.3-1.1-.5-1.8-.5-1.8h32.1s-.1.7-.5,1.8h-.3,0ZM772.8,753.8c.7,0,1.4.3,2,.7h-.6c.4.2.8.5,1.1.8,0,0,.2-.1.3-.2,0,0,.1,0,.2,0,0,0,0,0,.1,0,0,0,.2,0,.2,0,0,0,0,0,0,0,0,0,.2,0,.3,0h0c.1,0,.2,0,.3,0h0c.3,0,.7-.1,1-.1h.1c.2,0,.4,0,.7,0,1.2.2,2.2.7,3,1.5h.1c1.1,1.1,1.7,2.7,1.5,4.3,0,.4-.1.7-.2,1,0,0,0,.2,0,.3h.6c-.5,1.3-1.2,2.5-2.2,3.4h-.4c-.4.5-.9.9-1.4,1.2h.3c-2.7,2.1-5.8,3.1-5.8,3.1,0,0-1.9-1.1-3.7-3.1h-.3c-.4-.4-.7-.8-1.1-1.2h.4c-.8-1-1.5-2.2-1.9-3.4h-.6c-.3-.8-.4-1.5-.5-2.4,0-.3,0-.7,0-1.1.1-.8.4-1.5.8-2.2.4-.7,1-1.2,1.7-1.6h.5c.8-.5,1.7-.7,2.7-.7s.4,0,.7,0h0ZM747.3,765.1h.2c-.9-1-1.7-2.1-2.2-3.4h-.4c0,0,0-.2,0-.3,0-.1,0-.2,0-.3,0-.2-.1-.5-.1-.7-.2-1.7.4-3.2,1.5-4.3h0c.8-.8,1.8-1.3,3-1.5.2,0,.4,0,.7,0h.1c.3,0,.7,0,1,.1h0c.1,0,.2,0,.3,0h0c0,0,.2,0,.3.1,0,0,0,0,0,0,0,0,.2,0,.2,0,0,0,0,0,.1,0,0,0,.1,0,.2,0,.1,0,.2.1.3.2.3-.3.7-.6,1.1-.8h.4c.6-.4,1.3-.6,2-.7.2,0,.4,0,.7,0,1,0,1.9.3,2.7.7h-.5c.7.4,1.2.9,1.7,1.6.4.6.7,1.4.8,2.2,0,.4,0,.7,0,1.1,0,.8-.2,1.6-.5,2.4h.6c-.4,1.3-1.1,2.4-1.9,3.4h-.4c-.3.4-.7.8-1.1,1.2h.3c-1.8,1.9-3.7,3.1-3.7,3.1,0,0-3.1-1-5.8-3.1h-.3c-.5-.4-.9-.8-1.4-1.2h0Z"/>
              </g>
            </g>
            <g>
              <g>
                <path class="st32" d="M786.3,748.5h0c-12.2-12.2-32-12.2-44.3,0h0c-12.2,12.2-12.2,32,0,44.3l22.1,22.1,22.1-22.1c12.2-12.2,12.2-32,0-44.3h0Z"/>
                <path class="st18" d="M744.7,791.4c.1.1.3.3.4.4l19.2,19.2,18.9-18.9c.3-.6.4-1.1.4-1.7,0-2.1-1.6-4.2-3.7-4.5-1.8-.3-3.7.6-5,1.8s-2.3,2.9-3.4,4.4c-1.7,2.4-3.6,4.6-6.2,6.1-2.5,1.5-5.6,2.1-8.4,1.2-3.8-1.3-6.1-5.1-9.5-7.3-.8-.5-1.8-.9-2.8-.8h0Z"/>
                <g class="st67">
                  <path class="st20" d="M764.1,816.4l-22.9-22.9c-6.1-6.1-9.5-14.3-9.5-22.9s3.4-16.8,9.5-22.9c6.1-6.1,14.3-9.5,22.9-9.5s16.8,3.4,22.9,9.5l-.5.5.5-.5c6.1,6.1,9.5,14.3,9.5,22.9s-3.4,16.8-9.5,22.9l-22.9,22.9ZM764.1,739.6c-8.3,0-16.1,3.2-21.9,9.1-12.1,12.1-12.1,31.7,0,43.8l21.9,21.9,21.9-21.9c12.1-12.1,12.1-31.7,0-43.8-5.8-5.8-13.6-9.1-21.9-9.1Z"/>
                </g>
                <path class="st4" d="M791.5,770.1c0,1.1,0,2.2-.2,3.3-1.3-3.4-3.6-6.4-6.6-8.4-6.1-4-14.7-3.7-20.5.8-3.3,2.5-5.5,6.1-8.3,9.1-2.7,2.9-6.4,5.6-10.6,5.3-3.4-.3-6.5-2.7-7.9-5.9-3.3-7.2,1.3-17.2,6.2-22.7,5.2-5.7,12.7-9,20.4-9,15.2,0,27.5,12.3,27.5,27.5h0Z"/>
              </g>
              <circle class="st29" cx="738.4" cy="753.7" r="12.6"/>
            </g>
          </g>
          <g>
            <g>
              <g>
                <g>
                  <rect class="st66" x="855" y="503" width="2.8" height="2.8" transform="translate(-62.4 125.4) rotate(-8.1)"/>
                  <polygon class="st66" points="859.6 496.9 860 499.6 860 499.7 860.6 499.6 862.8 499.3 862.4 496.5 859.6 496.9"/>
                  <polygon class="st66" points="857.3 501 857.6 502.9 860.4 502.5 860.2 501 860 499.7 857.2 500.1 857.3 501"/>
                  <path class="st66" d="M873.8,493h-.4c-.4-1.8-1.1-3.6-2-5.2h-.7c-.9-1.6-2-3.1-3.3-4.5h.4c-.5-.6-1.1-1.1-1.7-1.6h.4c-2.1-1.8-4.6-3.2-7.4-4.1h.7c-2.1-.7-4.3-1-6.6-1s-4.5.4-6.6,1h-.7c-2.7.9-5.2,2.3-7.4,4.1h-.4c-.6.5-1.1,1-1.7,1.6h-.4c-1.3,1.3-2.4,2.8-3.3,4.5h.7c-.9,1.6-1.6,3.3-2,5.2h.4c-.4,1.6-.6,3.3-.6,5.1s0,1,0,1.5h-.1c0,.5,0,.9.1,1.4h-.4c.3,1.8.7,3.6,1.4,5.3h.2c.8,1.9,1.8,3.7,3.1,5.3h.4c.6.7,1.2,1.4,1.8,2h-.8c1.5,1.5,3.3,2.7,5.2,3.7h.8c2.9,1.5,6.3,2.3,9.8,2.3s6.8-.8,9.8-2.3h-.8c1.9-1,3.6-2.2,5.2-3.7h.8c.6-.6,1.3-1.3,1.8-2h-.4c1.3-1.6,2.3-3.4,3.1-5.3h-.2c.7-1.7,1.2-3.4,1.4-5.3h.4c0-.4.1-.9.1-1.4h.1c0-.5,0-1,0-1.5,0-1.8-.2-3.5-.6-5.1h0Z"/>
                </g>
                <g>
                  <rect class="st66" x="852.3" y="502.1" width="2.8" height="2.8" transform="translate(-62.3 125) rotate(-8.1)"/>
                  <polygon class="st66" points="856.8 496 857.2 498.7 857.2 498.7 857.8 498.7 860 498.4 859.6 495.6 856.8 496"/>
                  <polygon class="st66" points="854.5 500 854.8 501.9 857.6 501.5 857.4 500 857.2 498.7 854.4 499.2 854.5 500"/>
                  <path class="st66" d="M871,492h-.4c-.4-1.8-1.1-3.6-2-5.2h-.7c-.9-1.6-2-3.1-3.3-4.5h.4c-.5-.6-1.1-1.1-1.7-1.6h.4c-2.1-1.8-4.6-3.2-7.4-4.1h.7c-2.1-.7-4.3-1-6.6-1s-4.5.4-6.6,1h-.7c-2.7.9-5.2,2.3-7.4,4.1h-.4c-.6.5-1.1,1-1.7,1.6h-.4c-1.3,1.3-2.4,2.8-3.3,4.5h.7c-.9,1.6-1.6,3.3-2,5.2h.4c-.4,1.6-.6,3.3-.6,5.1s0,1,0,1.5h-.1c0,.5,0,.9.1,1.4h-.4c.3,1.8.7,3.6,1.4,5.3h.2c.8,1.9,1.8,3.7,3.1,5.3h.4c.6.7,1.2,1.4,1.8,2h-.8c1.5,1.5,3.3,2.7,5.2,3.7h.8c2.9,1.5,6.3,2.3,9.8,2.3s6.8-.8,9.8-2.3h-.8c1.9-1,3.6-2.2,5.2-3.7h.8c.6-.6,1.3-1.3,1.8-2h-.4c1.3-1.6,2.3-3.4,3.1-5.3h-.2c.7-1.7,1.2-3.4,1.4-5.3h.4c0-.4.1-.9.1-1.4h.1c0-.5,0-1,0-1.5,0-1.8-.2-3.5-.6-5.1h0ZM863.4,498.7c-.2.5-.4.9-.6,1.4h-.4c-1,2-2.3,3.8-3.8,5.3h.2c-2.4,2.4-5.1,4.2-6.9,5.3h.4c-1.3.7-2.1,1.1-2.1,1.1,0,0-.8-.4-2.1-1.1h-.4c-1.8-1.1-4.5-2.8-6.9-5.3h-.2c-1.5-1.5-2.9-3.3-3.8-5.3h.4c-.2-.4-.4-.9-.6-1.4h.1c-.3-.8-.5-1.6-.7-2.4-.1-.6-.2-1.2-.2-1.8s.1-1.7.3-2.4h-.4c.6-2.2,2.1-4.1,4-5.2h-.7c1.3-.8,2.8-1.2,4.4-1.2s3.1.4,4.4,1.2h.7c.4.2.8.5,1.1.8.3-.3.7-.5,1.1-.8h-.7c1.3-.8,2.8-1.2,4.4-1.2s3.1.4,4.4,1.2h.7c1.9,1.1,3.4,3,4,5.2h.4c.2.8.3,1.6.3,2.4s0,1.2-.2,1.8c-.1.8-.4,1.7-.7,2.4h-.1,0Z"/>
                </g>
              </g>
              <g>
                <rect class="st69" x="853.5" y="502.5" width="2.8" height="2.8" transform="translate(-62.3 125.2) rotate(-8.1)"/>
                <polygon class="st69" points="858.1 496.3 858.5 499 858.5 499.1 859.1 499 861.3 498.7 860.9 495.9 858.1 496.3"/>
                <polygon class="st69" points="855.8 500.4 856.1 502.3 858.9 501.9 858.7 500.4 858.5 499.1 855.7 499.5 855.8 500.4"/>
                <path class="st69" d="M872.3,492.4h-.4c-.4-1.8-1.1-3.6-2-5.2h-.7c-.9-1.6-2-3.1-3.3-4.5h.4c-.5-.6-1.1-1.1-1.7-1.6h.4c-2.1-1.8-4.6-3.2-7.4-4.1h.7c-2.1-.7-4.3-1-6.6-1s-4.5.4-6.6,1h-.7c-2.7.9-5.2,2.3-7.4,4.1h-.4c-.6.5-1.1,1-1.7,1.6h-.4c-1.3,1.3-2.4,2.8-3.3,4.5h.7c-.9,1.6-1.6,3.3-2,5.2h.4c-.4,1.6-.6,3.3-.6,5.1s0,1,0,1.5h-.1c0,.5,0,.9.1,1.4h-.4c.3,1.8.7,3.6,1.4,5.3h.2c.8,1.9,1.8,3.7,3.1,5.3h.4c.6.7,1.2,1.4,1.8,2h-.8c1.5,1.5,3.3,2.7,5.2,3.7h.8c2.9,1.5,6.3,2.3,9.8,2.3s6.8-.8,9.8-2.3h-.8c1.9-1,3.6-2.2,5.2-3.7h.8c.6-.6,1.3-1.3,1.8-2h-.4c1.3-1.6,2.3-3.4,3.1-5.3h-.2c.7-1.7,1.2-3.4,1.4-5.3h.4c0-.4.1-.9.1-1.4h.1c0-.5,0-1,0-1.5,0-1.8-.2-3.5-.6-5.1h0ZM864.7,499c-.2.5-.4.9-.6,1.4h-.4c-1,2-2.3,3.8-3.8,5.3h.2c-2.4,2.4-5.1,4.2-6.9,5.3h.4c-1.3.7-2.1,1.1-2.1,1.1,0,0-.8-.4-2.1-1.1h-.4c-1.8-1.1-4.5-2.8-6.9-5.3h-.2c-1.5-1.5-2.9-3.3-3.8-5.3h.4c-.2-.4-.4-.9-.6-1.4h.1c-.3-.8-.5-1.6-.7-2.4-.1-.6-.2-1.2-.2-1.8s.1-1.7.3-2.4h-.4c.6-2.2,2.1-4.1,4-5.2h-.7c1.3-.8,2.8-1.2,4.4-1.2s3.1.4,4.4,1.2h.7c.4.2.8.5,1.1.8.3-.3.7-.5,1.1-.8h-.7c1.3-.8,2.8-1.2,4.4-1.2s3.1.4,4.4,1.2h.7c1.9,1.1,3.4,3,4,5.2h.4c.2.8.3,1.6.3,2.4s0,1.2-.2,1.8c-.1.8-.4,1.7-.7,2.4h-.1,0Z"/>
              </g>
            </g>
            <g>
              <g>
                <path class="st1" d="M873.4,476.6h0c-12.2-12.2-32-12.2-44.3,0h0c-12.2,12.2-12.2,32,0,44.3l22.1,22.1,22.1-22.1c12.2-12.2,12.2-32,0-44.3h0Z"/>
                <path class="st23" d="M831.8,519.4c.1.1.3.3.4.4l19.2,19.2,18.9-18.9c.3-.6.4-1.1.4-1.7,0-2.1-1.6-4.2-3.7-4.5-1.8-.3-3.7.6-5,1.8s-2.3,2.9-3.4,4.4c-1.7,2.4-3.6,4.6-6.2,6.1-2.5,1.5-5.6,2.1-8.4,1.2-3.8-1.3-6.1-5.1-9.5-7.3-.8-.5-1.8-.9-2.8-.8h0Z"/>
                <g class="st67">
                  <path class="st8" d="M851.3,544.5l-22.9-22.9c-6.1-6.1-9.5-14.3-9.5-22.9s3.4-16.8,9.5-22.9c6.1-6.1,14.3-9.5,22.9-9.5s16.8,3.4,22.9,9.5l-.5.5.5-.5c6.1,6.1,9.5,14.3,9.5,22.9s-3.4,16.8-9.5,22.9l-22.9,22.9ZM851.3,467.6c-8.3,0-16.1,3.2-21.9,9.1-12.1,12.1-12.1,31.7,0,43.8l21.9,21.9,21.9-21.9c12.1-12.1,12.1-31.7,0-43.8s-13.6-9.1-21.9-9.1Z"/>
                </g>
                <path class="st31" d="M878.6,498.1c0,1.1,0,2.2-.2,3.3-1.3-3.4-3.6-6.4-6.6-8.4-6.1-4-14.7-3.7-20.5.8-3.3,2.5-5.5,6.1-8.3,9.1-2.7,2.9-6.4,5.6-10.6,5.3-3.4-.3-6.5-2.7-7.9-5.9-3.3-7.2,1.3-17.2,6.2-22.7,5.2-5.7,12.7-9,20.4-9,15.2,0,27.5,12.3,27.5,27.5h0Z"/>
              </g>
              <circle class="st35" cx="825.5" cy="481.7" r="12.6"/>
            </g>
          </g>
          <g>
            <g>
              <g>
                <path class="st66" d="M245.3,782.5v-.5h.8c0-2.3-.5-4.5-1.2-6.5h.4c-.3-.8-.6-1.5-.9-2.2h-.2c-1.1-2.3-2.7-4.5-4.6-6.2h-1.2c-1-.9-2.1-1.8-3.3-2.5h1.1c-3.2-1.9-6.9-3.1-10.9-3.1s-7.7,1.1-10.9,3.1h-1.1c-1.2.7-2.3,1.6-3.3,2.5h1.2c-1.9,1.8-3.5,3.9-4.6,6.2-.3.7-.7,1.5-.9,2.2h-.2c-.7,2-1.1,4.2-1.2,6.5h-.8v.5c0,1.6.2,3.2.5,4.7h.8c0,.3.2.7.3,1,.6,2.1,1.5,4,2.6,5.7h-.8c1.6,2.5,3.8,4.6,6.3,6.2h.7c3.3,2.1,7.1,3.3,11.3,3.3s8-1.2,11.3-3.3h-.7c2.5-1.6,4.7-3.7,6.3-6.2h.8c1.1-1.7,2-3.7,2.6-5.7,0-.3.2-.7.3-1h-.8c.3-1.5.5-3.1.5-4.7h0ZM231.8,775.5h-.4l-1,.7,4.1,2.7c.3.2.4.7.2,1-.1.2-.4.3-.6.3s-.3,0-.4-.1l-4.9-3.3c-.2-.1-.3-.3-.3-.6s.1-.5.3-.6l.2-.2,3.1-2.2h.2l1.6-1.2c.3-.2.8-.2,1,.2.2.3.2.8-.2,1h.2l-3.1,2.2h0ZM215,775.5c0-.9.3-1.6.7-2.2.5-.7,1.1-1.1,1.8-1.1s1.4.4,1.8,1.1h-.2c.4.6.7,1.4.7,2.2v.3c0,2-1.1,3.6-2.5,3.6s-2.5-1.6-2.5-3.6v-.3h.2Z"/>
                <path class="st66" d="M242,781.2v-.5h.8c0-2.3-.5-4.5-1.2-6.5h.4c-.3-.8-.6-1.5-.9-2.2h-.2c-1.1-2.3-2.7-4.5-4.6-6.2h-1.2c-1-.9-2.1-1.8-3.3-2.5h1.1c-3.2-1.9-6.9-3.1-10.9-3.1s-7.7,1.1-10.9,3.1h-1.1c-1.2.7-2.3,1.6-3.3,2.5h1.2c-1.9,1.8-3.5,3.9-4.6,6.2-.3.7-.7,1.5-.9,2.2h-.2c-.7,2-1.1,4.2-1.2,6.5h-.8v.5c0,1.6.2,3.2.5,4.7h.8c0,.3.2.7.3,1,.6,2.1,1.5,4,2.6,5.7h-.8c1.6,2.5,3.8,4.6,6.3,6.2h.7c3.3,2.1,7.1,3.3,11.3,3.3s8-1.2,11.3-3.3h-.7c2.5-1.6,4.7-3.7,6.3-6.2h.8c1.1-1.7,2-3.7,2.6-5.7,0-.3.2-.7.3-1h-.8c.3-1.5.5-3.1.5-4.7h0ZM228.5,774.2h-.4l-1,.7,4.1,2.7c.3.2.4.7.2,1-.1.2-.4.3-.6.3s-.3,0-.4-.1l-4.9-3.3c-.2-.1-.3-.3-.3-.6s.1-.5.3-.6l.2-.2,3.1-2.2h.2l1.6-1.2c.3-.2.8-.2,1,.2.2.3.2.8-.2,1h.2l-3.1,2.2h0ZM226.2,792.7c-1.7.4-3.4.7-5.1.7s-3.5-.2-5.1-.7h.8c-1.2-.3-2.3-.7-3.3-1.2-.5-.3-.8-.9-.5-1.4.3-.5.9-.8,1.4-.5,2.3,1.1,5,1.7,7.6,1.7s5.3-.6,7.6-1.7c.5-.3,1.2,0,1.4.5s0,1.2-.5,1.4c-1.1.5-2.2.9-3.3,1.2h-.8Z"/>
              </g>
              <path class="st69" d="M243.5,781.7v-.5h.8c0-2.3-.5-4.5-1.2-6.5h.4c-.3-.8-.6-1.5-.9-2.2h-.2c-1.1-2.3-2.7-4.5-4.6-6.2h-1.2c-1-.9-2.1-1.8-3.3-2.5h1.1c-3.2-1.9-6.9-3.1-10.9-3.1s-7.7,1.1-10.9,3.1h-1.1c-1.2.7-2.3,1.6-3.3,2.5h1.2c-1.9,1.8-3.5,3.9-4.6,6.2-.3.7-.7,1.5-.9,2.2h-.2c-.7,2-1.1,4.2-1.2,6.5h-.8v.5c0,1.6.2,3.2.5,4.7h.8c0,.3.2.7.3,1,.6,2.1,1.5,4,2.6,5.7h-.8c1.6,2.5,3.8,4.6,6.3,6.2h.7c3.3,2.1,7.1,3.3,11.3,3.3s8-1.2,11.3-3.3h-.7c2.5-1.6,4.7-3.7,6.3-6.2h.8c1.1-1.7,2-3.7,2.6-5.7,0-.3.2-.7.3-1h-.8c.3-1.5.5-3.1.5-4.7h0ZM229.9,774.7h-.4l-1,.7,4.1,2.7c.3.2.4.7.2,1-.1.2-.4.3-.6.3s-.3,0-.4-.1l-4.9-3.3c-.2-.1-.3-.3-.3-.6s.1-.5.3-.6l.2-.2,3.1-2.2h.2l1.6-1.2c.3-.2.8-.2,1,.2.2.3.2.8-.2,1h.2l-3.1,2.2h0ZM213.2,774.7c0-.9.3-1.6.7-2.2.5-.7,1.1-1.1,1.8-1.1s1.4.4,1.8,1.1h-.2c.4.6.7,1.4.7,2.2v.3c0,2-1.1,3.6-2.5,3.6s-2.5-1.6-2.5-3.6v-.3h.2ZM227.6,793.2c-1.7.4-3.4.7-5.1.7s-3.5-.2-5.1-.7h.8c-1.2-.3-2.3-.7-3.3-1.2-.5-.3-.8-.9-.5-1.4.3-.5.9-.8,1.4-.5,2.3,1.1,5,1.7,7.6,1.7s5.3-.6,7.6-1.7c.5-.3,1.2,0,1.4.5s0,1.2-.5,1.4c-1.1.5-2.2.9-3.3,1.2h-.8Z"/>
            </g>
            <g>
              <g>
                <path class="st7" d="M245.5,758.9h0c-12.2-12.2-32-12.2-44.3,0h0c-12.2,12.2-12.2,32,0,44.3l22.1,22.1,22.1-22.1c12.2-12.2,12.2-32,0-44.3h0Z"/>
                <path class="st16" d="M203.9,801.8c.1.1.3.3.4.4l19.2,19.2,18.9-18.9c.3-.6.4-1.1.4-1.7,0-2.1-1.6-4.2-3.7-4.5-1.8-.3-3.7.6-5,1.8-1.4,1.3-2.3,2.9-3.4,4.4-1.7,2.4-3.6,4.6-6.2,6.1-2.5,1.5-5.6,2.1-8.4,1.2-3.8-1.3-6.1-5.1-9.5-7.3-.8-.5-1.8-.9-2.8-.8h0Z"/>
                <g class="st67">
                  <path class="st21" d="M223.3,826.9l-22.9-22.9c-6.1-6.1-9.5-14.3-9.5-22.9s3.4-16.8,9.5-22.9c6.1-6.1,14.3-9.5,22.9-9.5s16.8,3.4,22.9,9.5l-.5.5.5-.5c6.1,6.1,9.5,14.3,9.5,22.9s-3.4,16.8-9.5,22.9l-22.9,22.9ZM223.3,750c-8.3,0-16.1,3.2-21.9,9.1-12.1,12.1-12.1,31.7,0,43.8l21.9,21.9,21.9-21.9c12.1-12.1,12.1-31.7,0-43.8-5.8-5.8-13.6-9.1-21.9-9.1Z"/>
                </g>
                <path class="st12" d="M250.7,780.5c0,1.1,0,2.2-.2,3.3-1.3-3.4-3.6-6.4-6.6-8.4-6.1-4-14.7-3.7-20.5.8-3.3,2.5-5.5,6.1-8.3,9.1-2.7,2.9-6.4,5.6-10.6,5.3-3.4-.3-6.5-2.7-7.9-5.9-3.3-7.2,1.3-17.2,6.2-22.7,5.2-5.7,12.7-9,20.4-9,15.2,0,27.5,12.3,27.5,27.5h0Z"/>
              </g>
              <circle class="st27" cx="197.6" cy="764.1" r="12.6"/>
            </g>
          </g>
          <g>
            <g>
              <g>
                <g>
                  <path class="st66" d="M1167.1,750.3h0c-2.4-1-4.4-1-4.4-1,0,0-1.9,0-4.4,1h0c-2,.8-4.3,2.3-6.1,5,.3.2.5.4.8.6h-.3c2.3,1.6,5.4,2.8,9.6,2.8s7.3-1.1,9.6-2.8h.3c.3-.2.5-.4.8-.6-1.8-2.7-4.1-4.2-6.1-5Z"/>
                  <path class="st66" d="M1183.7,745.1c0-.3,0-.7,0-1.1h.2v-.4c0-1.6-.2-3.1-.5-4.6h-.5c-.1-.5-.3-1-.4-1.6h.6c-.6-2.1-1.6-4-2.7-5.8h.4c-1-1.5-2.2-2.9-3.6-4.1h-.7c-.5-.4-1-.8-1.5-1.2h.5c-2.2-1.6-4.6-2.8-7.3-3.5h-1.1c-1.7-.4-3.5-.7-5.3-.7s-3.6.2-5.3.7h1.1c-2.7.7-5.1,1.9-7.3,3.5h-.5c-.5.4-1,.8-1.5,1.2h.7c-1.4,1.2-2.6,2.6-3.6,4.1h-.4c-1.2,1.8-2.1,3.7-2.7,5.8h-.6c-.2.5-.3,1-.4,1.6h.5c-.3,1.5-.5,3-.5,4.6v.4h-.2c0,.3,0,.7,0,1.1h.5c.1,1.8.5,3.5,1,5.2h-.1c.6,2,1.6,3.9,2.8,5.6h-.3c.7,1.1,1.6,2.1,2.5,3h-.2c2,2,4.4,3.6,7,4.7h.7c2.5,1,5.2,1.6,8,1.6s5.5-.6,8-1.6h-.7c2.7-1.1,5-2.7,7-4.7h.2c.9-.9,1.7-1.9,2.5-3h.3c1.2-1.7,2.1-3.6,2.8-5.6h.1c.5-1.6.9-3.4,1-5.2h-.5ZM1170.1,739.1h.5l1.4,1c.3.2.4.7.2,1-.1.2-.4.3-.6.3s-.3,0-.4-.1l-3.2-2.2h-.5l-1.8-1.2c-.1,0-.2-.2-.3-.4h.6s0-.1,0-.2c0-.2.1-.5.3-.6l5-3.6c.3-.2.8-.2,1,.2.2.3.2.8-.2,1l-4.2,3,.4.3h-.6l2.3,1.6h0ZM1156.4,737.6h.6l.4-.3-4.2-3c-.3-.2-.4-.7-.2-1s.7-.4,1-.2l5,3.6c.2.1.3.4.3.6s0,.2,0,.2h-.6c0,.2-.1.3-.3.4l-1.8,1.2h.5l-3.2,2.2c-.1,0-.3.1-.4.1-.2,0-.5-.1-.6-.3-.2-.3-.1-.8.2-1l1.4-1h-.5l2.3-1.6h0Z"/>
                </g>
                <g>
                  <path class="st66" d="M1164.1,749.2h0c-2.4-1-4.4-1-4.4-1,0,0-1.9,0-4.4,1h0c-2,.8-4.3,2.3-6.1,5,.3.2.5.4.8.6h-.3c2.3,1.6,5.4,2.8,9.6,2.8s7.3-1.1,9.6-2.8h.3c.3-.2.5-.4.8-.6-1.8-2.7-4.1-4.2-6.1-5Z"/>
                  <path class="st66" d="M1180.7,744.1c0-.3,0-.7,0-1.1h.2v-.4c0-1.6-.2-3.1-.5-4.6h-.5c-.1-.5-.3-1-.4-1.6h.6c-.6-2.1-1.6-4-2.7-5.8h.4c-1-1.5-2.2-2.9-3.6-4.1h-.7c-.5-.4-1-.8-1.5-1.2h.5c-2.2-1.6-4.6-2.8-7.3-3.5h-1.1c-1.7-.4-3.5-.7-5.3-.7s-3.6.2-5.3.7h1.1c-2.7.7-5.1,1.9-7.3,3.5h-.5c-.5.4-1,.8-1.5,1.2h.7c-1.4,1.2-2.6,2.6-3.6,4.1h-.4c-1.2,1.8-2.1,3.7-2.7,5.8h-.6c-.2.5-.3,1-.4,1.6h.5c-.3,1.5-.5,3-.5,4.6v.4h-.2c0,.3,0,.7,0,1.1h.5c.1,1.8.5,3.5,1,5.2h-.1c.6,2,1.6,3.9,2.8,5.6h-.3c.7,1.1,1.6,2.1,2.5,3h-.2c2,2,4.4,3.6,7,4.7h.7c2.5,1,5.2,1.6,8,1.6s5.5-.6,8-1.6h-.7c2.7-1.1,5-2.7,7-4.7h.2c.9-.9,1.7-1.9,2.5-3h.3c1.2-1.7,2.1-3.6,2.8-5.6h.1c.5-1.6.9-3.4,1-5.2h-.5ZM1174.6,749.2c-.7,1.7-1.9,3.8-3.9,5.6h-.3c-1.4,1.2-3.1,2.3-5.2,3h-.2c-1.7.5-3.6.8-5.8.8s-4.1-.3-5.8-.8h.2c-2.2-.7-3.9-1.8-5.2-3h.3c-2-1.8-3.2-3.9-3.9-5.6h.1c-.8-1.9-1-3.2-1-3.2h31.8s-.2,1.4-1,3.2h-.2Z"/>
                </g>
              </g>
              <g>
                <path class="st69" d="M1165.6,749.7h0c-2.4-1-4.4-1-4.4-1,0,0-1.9,0-4.4,1h0c-2,.8-4.3,2.3-6.1,5,.3.2.5.4.8.6h-.3c2.3,1.6,5.4,2.8,9.6,2.8s7.3-1.1,9.6-2.8h.3c.3-.2.5-.4.8-.6-1.8-2.7-4.1-4.2-6.1-5Z"/>
                <path class="st69" d="M1182.2,744.6c0-.3,0-.7,0-1.1h.2v-.4c0-1.6-.2-3.1-.5-4.6h-.5c-.1-.5-.3-1-.4-1.6h.6c-.6-2.1-1.6-4-2.7-5.8h.4c-1-1.5-2.2-2.9-3.6-4.1h-.7c-.5-.4-1-.8-1.5-1.2h.5c-2.2-1.6-4.6-2.8-7.3-3.5h-1.1c-1.7-.4-3.5-.7-5.3-.7s-3.6.2-5.3.7h1.1c-2.7.7-5.1,1.9-7.3,3.5h-.5c-.5.4-1,.8-1.5,1.2h.7c-1.4,1.2-2.6,2.6-3.6,4.1h-.4c-1.2,1.8-2.1,3.7-2.7,5.8h-.6c-.2.5-.3,1-.4,1.6h.5c-.3,1.5-.5,3-.5,4.6v.4h-.2c0,.3,0,.7,0,1.1h.5c.1,1.8.5,3.5,1,5.2h-.1c.6,2,1.6,3.9,2.8,5.6h-.3c.7,1.1,1.6,2.1,2.5,3h-.2c2,2,4.4,3.6,7,4.7h.7c2.5,1,5.2,1.6,8,1.6s5.5-.6,8-1.6h-.7c2.7-1.1,5-2.7,7-4.7h.2c.9-.9,1.7-1.9,2.5-3h.3c1.2-1.7,2.1-3.6,2.8-5.6h.1c.5-1.6.9-3.4,1-5.2h-.5ZM1168.6,738.6h.5l1.4,1c.3.2.4.7.2,1-.1.2-.4.3-.6.3s-.3,0-.4-.1l-3.2-2.2h-.5l-1.8-1.2c-.1,0-.2-.2-.3-.4h.6s0-.1,0-.2c0-.2.1-.5.3-.6l5-3.6c.3-.2.8-.2,1,.2.2.3.2.8-.2,1l-4.2,3,.4.3h-.6l2.3,1.6h0ZM1154.9,737h.6l.4-.3-4.2-3c-.3-.2-.4-.7-.2-1s.7-.4,1-.2l5,3.6c.2.1.3.4.3.6s0,.2,0,.2h-.6c0,.2-.1.3-.3.4l-1.8,1.2h.5l-3.2,2.2c-.1,0-.3.1-.4.1-.2,0-.5-.1-.6-.3-.2-.3-.1-.8.2-1l1.4-1h-.5l2.3-1.6h0ZM1176.1,749.7c-.7,1.7-1.9,3.8-3.9,5.6h-.3c-1.4,1.2-3.1,2.3-5.2,3h-.2c-1.7.5-3.6.8-5.8.8s-4.1-.3-5.8-.8h.2c-2.2-.7-3.9-1.8-5.2-3h.3c-2-1.8-3.2-3.9-3.9-5.6h.1c-.8-1.9-1-3.2-1-3.2h31.8s-.2,1.4-1,3.2h-.2Z"/>
              </g>
            </g>
            <g>
              <g>
                <path class="st2" d="M1183.2,721.3h0c-12.2-12.2-32-12.2-44.3,0h0c-12.2,12.2-12.2,32,0,44.3l22.1,22.1,22.1-22.1c12.2-12.2,12.2-32,0-44.3h0Z"/>
                <path class="st30" d="M1141.6,764.2c.1.1.3.3.4.4l19.2,19.2,18.9-18.9c.3-.6.4-1.1.4-1.7,0-2.1-1.6-4.2-3.7-4.5-1.8-.3-3.7.6-5,1.8s-2.3,2.9-3.4,4.4c-1.7,2.4-3.6,4.6-6.2,6.1-2.5,1.5-5.6,2.1-8.4,1.2-3.8-1.3-6.1-5.1-9.5-7.3-.8-.5-1.8-.9-2.8-.8h0Z"/>
                <g class="st67">
                  <path class="st5" d="M1161.1,789.3l-22.9-22.9c-6.1-6.1-9.5-14.3-9.5-22.9s3.4-16.8,9.5-22.9c6.1-6.1,14.3-9.5,22.9-9.5s16.8,3.4,22.9,9.5l-.5.5.5-.5c6.1,6.1,9.5,14.3,9.5,22.9s-3.4,16.8-9.5,22.9l-22.9,22.9ZM1161.1,712.4c-8.3,0-16.1,3.2-21.9,9.1-12.1,12.1-12.1,31.7,0,43.8l21.9,21.9,21.9-21.9c12.1-12.1,12.1-31.7,0-43.8-5.8-5.8-13.6-9.1-21.9-9.1Z"/>
                </g>
                <path class="st17" d="M1188.4,742.9c0,1.1,0,2.2-.2,3.3-1.3-3.4-3.6-6.4-6.6-8.4-6.1-4-14.7-3.7-20.5.8-3.3,2.5-5.5,6.1-8.3,9.1-2.7,2.9-6.4,5.6-10.6,5.3-3.4-.3-6.5-2.7-7.9-5.9-3.3-7.2,1.3-17.2,6.2-22.7,5.2-5.7,12.7-9,20.4-9,15.2,0,27.5,12.3,27.5,27.5h0Z"/>
              </g>
              <circle class="st3" cx="1135.3" cy="726.5" r="12.6"/>
            </g>
          </g>
          <g class="st22">
            <text class="st33" transform="translate(509 852.1) rotate(-90)"><tspan x="0" y="0">YOUNG GENERATION</tspan></text>
          </g>
          <g class="st22">
            <text class="st13" transform="translate(286.3 861.6) rotate(-90)"><tspan x="0" y="0">YOUNG GENERATION</tspan></text>
          </g>
          <g class="st22">
            <text class="st36" transform="translate(835.7 858.3) rotate(-90)"><tspan x="0" y="0">YOUNG GENERATION</tspan></text>
          </g>
          <g class="st72">
            <g class="st70">
              <g>
                <polyline class="st48" points=".8 586.7 159.9 586.7 159.9 977.6 298.9 977.6 298.9 757.5 406.1 757.5 406.1 977.6 524.8 977.6 524.8 586.7 695.7 586.7 695.7 977.6 849.1 977.6 849.1 673.6 1157.5 982 1467.4 672.1 1782.3 987 1876.7 892.6"/>
                <polyline class="st56" points=".8 577.7 159.9 577.7 159.9 968.6 298.9 968.6 298.9 748.6 406.1 748.6 406.1 968.6 524.8 968.6 524.8 577.7 695.7 577.7 695.7 968.6 849.1 968.6 849.1 664.6 1157.5 973 1467.4 663.1 1782.3 978 1876.7 883.6"/>
                <polyline class="st59" points=".8 568.7 159.9 568.7 159.9 959.6 298.9 959.6 298.9 739.6 406.1 739.6 406.1 959.6 524.8 959.6 524.8 568.7 695.7 568.7 695.7 959.6 849.1 959.6 849.1 655.6 1157.5 964 1467.4 654.1 1782.3 969.1 1876.7 874.6"/>
                <polyline class="st41" points=".8 559.7 159.9 559.7 159.9 950.7 298.9 950.7 298.9 730.6 406.1 730.6 406.1 950.7 524.8 950.7 524.8 559.7 695.7 559.7 695.7 950.7 849.1 950.7 849.1 646.6 1157.5 955 1467.4 645.2 1782.3 960.1 1876.7 865.7"/>
                <polyline class="st62" points=".8 550.7 159.9 550.7 159.9 941.7 298.9 941.7 298.9 721.6 406.1 721.6 406.1 941.7 524.8 941.7 524.8 550.7 695.7 550.7 695.7 941.7 849.1 941.7 849.1 637.6 1157.5 946 1467.4 636.2 1782.3 951.1 1876.7 856.7"/>
                <polyline class="st43" points=".8 541.7 159.9 541.7 159.9 932.7 298.9 932.7 298.9 712.6 406.1 712.6 406.1 932.7 524.8 932.7 524.8 541.7 695.7 541.7 695.7 932.7 849.1 932.7 849.1 628.6 1157.5 937 1467.4 627.2 1782.3 942.1 1876.7 847.7"/>
                <polyline class="st58" points=".8 532.8 159.9 532.8 159.9 923.7 298.9 923.7 298.9 703.6 406.1 703.6 406.1 923.7 524.8 923.7 524.8 532.8 695.7 532.8 695.7 923.7 849.1 923.7 849.1 619.6 1157.5 928 1467.4 618.2 1782.3 933.1 1876.7 838.7"/>
                <polyline class="st52" points=".8 523.8 159.9 523.8 159.9 914.7 298.9 914.7 298.9 694.6 406.1 694.6 406.1 914.7 524.8 914.7 524.8 523.8 695.7 523.8 695.7 914.7 849.1 914.7 849.1 610.6 1157.5 919 1467.4 609.2 1782.3 924.1 1876.7 829.7"/>
                <polyline class="st57" points=".8 514.8 159.9 514.8 159.9 905.7 298.9 905.7 298.9 685.6 406.1 685.6 406.1 905.7 524.8 905.7 524.8 514.8 695.7 514.8 695.7 905.7 849.1 905.7 849.1 601.6 1157.5 910.1 1467.4 600.2 1782.3 915.1 1876.7 820.7"/>
                <polyline class="st42" points=".8 505.8 159.9 505.8 159.9 896.7 298.9 896.7 298.9 676.6 406.1 676.6 406.1 896.7 524.8 896.7 524.8 505.8 695.7 505.8 695.7 896.7 849.1 896.7 849.1 592.7 1157.5 901.1 1467.4 591.2 1782.3 906.1 1876.7 811.7"/>
                <polyline class="st40" points=".8 496.8 159.9 496.8 159.9 887.7 298.9 887.7 298.9 667.7 406.1 667.7 406.1 887.7 524.8 887.7 524.8 496.8 695.7 496.8 695.7 887.7 849.1 887.7 849.1 583.7 1157.5 892.1 1467.4 582.2 1782.3 897.1 1876.7 802.7"/>
                <polyline class="st55" points=".8 487.8 159.9 487.8 159.9 878.7 298.9 878.7 298.9 658.7 406.1 658.7 406.1 878.7 524.8 878.7 524.8 487.8 695.7 487.8 695.7 878.7 849.1 878.7 849.1 574.7 1157.5 883.1 1467.4 573.2 1782.3 888.2 1876.7 793.7"/>
                <polyline class="st46" points=".8 478.8 159.9 478.8 159.9 869.8 298.9 869.8 298.9 649.7 406.1 649.7 406.1 869.8 524.8 869.8 524.8 478.8 695.7 478.8 695.7 869.8 849.1 869.8 849.1 565.7 1157.5 874.1 1467.4 564.3 1782.3 879.2 1876.7 784.8"/>
                <polyline class="st45" points=".8 500.9 159.9 500.9 159.9 891.9 298.9 891.9 298.9 671.8 406.1 671.8 406.1 891.9 524.8 891.9 524.8 500.9 695.7 500.9 695.7 891.9 849.1 891.9 849.1 587.8 1157.5 896.2 1467.4 586.4 1782.3 901.3 1876.7 806.9"/>
                <polyline class="st49" points=".8 523 159.9 523 159.9 914 298.9 914 298.9 693.9 406.1 693.9 406.1 914 524.8 914 524.8 523 695.7 523 695.7 914 849.1 914 849.1 609.9 1157.5 918.3 1467.4 608.5 1782.3 923.4 1876.7 829"/>
                <polyline class="st63" points=".8 545.1 159.9 545.1 159.9 936.1 298.9 936.1 298.9 716 406.1 716 406.1 936.1 524.8 936.1 524.8 545.1 695.7 545.1 695.7 936.1 849.1 936.1 849.1 632 1157.5 940.4 1467.4 630.6 1782.3 945.5 1876.7 851.1"/>
                <polyline class="st64" points=".8 567.3 159.9 567.3 159.9 958.2 298.9 958.2 298.9 738.1 406.1 738.1 406.1 958.2 524.8 958.2 524.8 567.3 695.7 567.3 695.7 958.2 849.1 958.2 849.1 654.1 1157.5 962.5 1467.4 652.7 1782.3 967.6 1876.7 873.2"/>
                <polyline class="st39" points=".8 589.4 159.9 589.4 159.9 980.3 298.9 980.3 298.9 760.2 406.1 760.2 406.1 980.3 524.8 980.3 524.8 589.4 695.7 589.4 695.7 980.3 849.1 980.3 849.1 676.2 1157.5 984.7 1467.4 674.8 1782.3 989.7 1876.7 895.3"/>
                <polyline class="st61" points=".8 611.5 159.9 611.5 159.9 1002.4 298.9 1002.4 298.9 782.3 406.1 782.3 406.1 1002.4 524.8 1002.4 524.8 611.5 695.7 611.5 695.7 1002.4 849.1 1002.4 849.1 698.4 1157.5 1006.8 1467.4 696.9 1782.3 1011.8 1876.7 917.4"/>
                <polyline class="st60" points=".8 633.6 159.9 633.6 159.9 1024.5 298.9 1024.5 298.9 804.4 406.1 804.4 406.1 1024.5 524.8 1024.5 524.8 633.6 695.7 633.6 695.7 1024.5 849.1 1024.5 849.1 720.5 1157.5 1028.9 1467.4 719 1782.3 1033.9 1876.7 939.5"/>
                <polyline class="st54" points=".8 655.7 159.9 655.7 159.9 1046.6 298.9 1046.6 298.9 826.6 406.1 826.6 406.1 1046.6 524.8 1046.6 524.8 655.7 695.7 655.7 695.7 1046.6 849.1 1046.6 849.1 742.6 1157.5 1051 1467.4 741.1 1782.3 1056 1876.7 961.6"/>
                <polyline class="st50" points=".8 677.8 159.9 677.8 159.9 1068.8 298.9 1068.8 298.9 848.7 406.1 848.7 406.1 1068.8 524.8 1068.8 524.8 677.8 695.7 677.8 695.7 1068.8 849.1 1068.8 849.1 764.7 1157.5 1073.1 1467.4 763.2 1782.3 1078.2 1876.7 983.7"/>
                <polyline class="st53" points=".8 699.9 159.9 699.9 159.9 1090.9 298.9 1090.9 298.9 870.8 406.1 870.8 406.1 1090.9 524.8 1090.9 524.8 699.9 695.7 699.9 695.7 1090.9 849.1 1090.9 849.1 786.8 1157.5 1095.2 1467.4 785.4 1782.3 1100.3 1876.7 1005.9"/>
                <polyline class="st51" points=".8 722 159.9 722 159.9 1113 298.9 1113 298.9 892.9 406.1 892.9 406.1 1113 524.8 1113 524.8 722 695.7 722 695.7 1113 849.1 1113 849.1 808.9 1157.5 1117.3 1467.4 807.5 1782.3 1122.4 1876.7 1028"/>
                <polyline class="st47" points=".8 744.2 159.9 744.2 159.9 1135.1 298.9 1135.1 298.9 915 406.1 915 406.1 1135.1 524.8 1135.1 524.8 744.2 695.7 744.2 695.7 1135.1 849.1 1135.1 849.1 831 1157.5 1139.4 1467.4 829.6 1782.3 1144.5 1876.7 1050.1"/>
              </g>
            </g>
          </g>
        </g>
      </g>
      <g class="st22">
        <g id="Layer_12" data-name="Layer_1">
          <g class="st22">
            <text class="st33" transform="translate(1790.8 852.1) rotate(-90)"><tspan x="0" y="0">YOUNG GENERATION</tspan></text>
          </g>
          <g class="st22">
            <text class="st13" transform="translate(1568 861.6) rotate(-90)"><tspan x="0" y="0">YOUNG GENERATION</tspan></text>
          </g>
          <g class="st22">
            <text class="st65" transform="translate(1265.9 746.5) rotate(-90)"><tspan x="0" y="0">YOUNG GENERATION</tspan></text>
          </g>
          <g class="st68">
            <g class="st70">
              <g>
                <polyline class="st48" points="1282.6 586.7 1441.7 586.7 1441.7 977.6 1580.7 977.6 1580.7 757.5 1687.8 757.5 1687.8 977.6 1806.6 977.6 1806.6 586.7 1977.4 586.7 1977.4 977.6 2130.9 977.6 2130.9 673.6 2439.3 982 2749.2 672.1 3064.1 987 3158.5 892.6"/>
                <polyline class="st56" points="1282.6 577.7 1441.7 577.7 1441.7 968.6 1580.7 968.6 1580.7 748.6 1687.8 748.6 1687.8 968.6 1806.6 968.6 1806.6 577.7 1977.4 577.7 1977.4 968.6 2130.9 968.6 2130.9 664.6 2439.3 973 2749.2 663.1 3064.1 978 3158.5 883.6"/>
                <polyline class="st59" points="1282.6 568.7 1441.7 568.7 1441.7 959.6 1580.7 959.6 1580.7 739.6 1687.8 739.6 1687.8 959.6 1806.6 959.6 1806.6 568.7 1977.4 568.7 1977.4 959.6 2130.9 959.6 2130.9 655.6 2439.3 964 2749.2 654.1 3064.1 969.1 3158.5 874.6"/>
                <polyline class="st41" points="1282.6 559.7 1441.7 559.7 1441.7 950.7 1580.7 950.7 1580.7 730.6 1687.8 730.6 1687.8 950.7 1806.6 950.7 1806.6 559.7 1977.4 559.7 1977.4 950.7 2130.9 950.7 2130.9 646.6 2439.3 955 2749.2 645.2 3064.1 960.1 3158.5 865.7"/>
                <polyline class="st62" points="1282.6 550.7 1441.7 550.7 1441.7 941.7 1580.7 941.7 1580.7 721.6 1687.8 721.6 1687.8 941.7 1806.6 941.7 1806.6 550.7 1977.4 550.7 1977.4 941.7 2130.9 941.7 2130.9 637.6 2439.3 946 2749.2 636.2 3064.1 951.1 3158.5 856.7"/>
                <polyline class="st43" points="1282.6 541.7 1441.7 541.7 1441.7 932.7 1580.7 932.7 1580.7 712.6 1687.8 712.6 1687.8 932.7 1806.6 932.7 1806.6 541.7 1977.4 541.7 1977.4 932.7 2130.9 932.7 2130.9 628.6 2439.3 937 2749.2 627.2 3064.1 942.1 3158.5 847.7"/>
                <polyline class="st58" points="1282.6 532.8 1441.7 532.8 1441.7 923.7 1580.7 923.7 1580.7 703.6 1687.8 703.6 1687.8 923.7 1806.6 923.7 1806.6 532.8 1977.4 532.8 1977.4 923.7 2130.9 923.7 2130.9 619.6 2439.3 928 2749.2 618.2 3064.1 933.1 3158.5 838.7"/>
                <polyline class="st52" points="1282.6 523.8 1441.7 523.8 1441.7 914.7 1580.7 914.7 1580.7 694.6 1687.8 694.6 1687.8 914.7 1806.6 914.7 1806.6 523.8 1977.4 523.8 1977.4 914.7 2130.9 914.7 2130.9 610.6 2439.3 919 2749.2 609.2 3064.1 924.1 3158.5 829.7"/>
                <polyline class="st57" points="1282.6 514.8 1441.7 514.8 1441.7 905.7 1580.7 905.7 1580.7 685.6 1687.8 685.6 1687.8 905.7 1806.6 905.7 1806.6 514.8 1977.4 514.8 1977.4 905.7 2130.9 905.7 2130.9 601.6 2439.3 910.1 2749.2 600.2 3064.1 915.1 3158.5 820.7"/>
                <polyline class="st42" points="1282.6 505.8 1441.7 505.8 1441.7 896.7 1580.7 896.7 1580.7 676.6 1687.8 676.6 1687.8 896.7 1806.6 896.7 1806.6 505.8 1977.4 505.8 1977.4 896.7 2130.9 896.7 2130.9 592.7 2439.3 901.1 2749.2 591.2 3064.1 906.1 3158.5 811.7"/>
                <polyline class="st40" points="1282.6 496.8 1441.7 496.8 1441.7 887.7 1580.7 887.7 1580.7 667.7 1687.8 667.7 1687.8 887.7 1806.6 887.7 1806.6 496.8 1977.4 496.8 1977.4 887.7 2130.9 887.7 2130.9 583.7 2439.3 892.1 2749.2 582.2 3064.1 897.1 3158.5 802.7"/>
                <polyline class="st55" points="1282.6 487.8 1441.7 487.8 1441.7 878.7 1580.7 878.7 1580.7 658.7 1687.8 658.7 1687.8 878.7 1806.6 878.7 1806.6 487.8 1977.4 487.8 1977.4 878.7 2130.9 878.7 2130.9 574.7 2439.3 883.1 2749.2 573.2 3064.1 888.2 3158.5 793.7"/>
                <polyline class="st47" points="1282.6 1090.7 1282.6 478.8 1441.7 478.8 1441.7 869.8 1580.7 869.8 1580.7 649.7 1687.8 649.7 1687.8 869.8 1806.6 869.8 1806.6 478.8 1977.4 478.8 1977.4 869.8 2130.9 869.8 2130.9 565.7 2439.3 874.1 2749.2 564.3 3064.1 879.2 3158.5 784.8"/>
                <polyline class="st45" points="1282.6 500.9 1441.7 500.9 1441.7 891.9 1580.7 891.9 1580.7 671.8 1687.8 671.8 1687.8 891.9 1806.6 891.9 1806.6 500.9 1977.4 500.9 1977.4 891.9 2130.9 891.9 2130.9 587.8 2439.3 896.2 2749.2 586.4 3064.1 901.3 3158.5 806.9"/>
                <polyline class="st49" points="1282.6 523 1441.7 523 1441.7 914 1580.7 914 1580.7 693.9 1687.8 693.9 1687.8 914 1806.6 914 1806.6 523 1977.4 523 1977.4 914 2130.9 914 2130.9 609.9 2439.3 918.3 2749.2 608.5 3064.1 923.4 3158.5 829"/>
                <polyline class="st63" points="1282.6 545.1 1441.7 545.1 1441.7 936.1 1580.7 936.1 1580.7 716 1687.8 716 1687.8 936.1 1806.6 936.1 1806.6 545.1 1977.4 545.1 1977.4 936.1 2130.9 936.1 2130.9 632 2439.3 940.4 2749.2 630.6 3064.1 945.5 3158.5 851.1"/>
                <polyline class="st64" points="1282.6 567.3 1441.7 567.3 1441.7 958.2 1580.7 958.2 1580.7 738.1 1687.8 738.1 1687.8 958.2 1806.6 958.2 1806.6 567.3 1977.4 567.3 1977.4 958.2 2130.9 958.2 2130.9 654.1 2439.3 962.5 2749.2 652.7 3064.1 967.6 3158.5 873.2"/>
                <polyline class="st39" points="1282.6 589.4 1441.7 589.4 1441.7 980.3 1580.7 980.3 1580.7 760.2 1687.8 760.2 1687.8 980.3 1806.6 980.3 1806.6 589.4 1977.4 589.4 1977.4 980.3 2130.9 980.3 2130.9 676.2 2439.3 984.7 2749.2 674.8 3064.1 989.7 3158.5 895.3"/>
                <polyline class="st61" points="1282.6 611.5 1441.7 611.5 1441.7 1002.4 1580.7 1002.4 1580.7 782.3 1687.8 782.3 1687.8 1002.4 1806.6 1002.4 1806.6 611.5 1977.4 611.5 1977.4 1002.4 2130.9 1002.4 2130.9 698.4 2439.3 1006.8 2749.2 696.9 3064.1 1011.8 3158.5 917.4"/>
                <polyline class="st60" points="1282.6 633.6 1441.7 633.6 1441.7 1024.5 1580.7 1024.5 1580.7 804.4 1687.8 804.4 1687.8 1024.5 1806.6 1024.5 1806.6 633.6 1977.4 633.6 1977.4 1024.5 2130.9 1024.5 2130.9 720.5 2439.3 1028.9 2749.2 719 3064.1 1033.9 3158.5 939.5"/>
                <polyline class="st54" points="1282.6 655.7 1441.7 655.7 1441.7 1046.6 1580.7 1046.6 1580.7 826.6 1687.8 826.6 1687.8 1046.6 1806.6 1046.6 1806.6 655.7 1977.4 655.7 1977.4 1046.6 2130.9 1046.6 2130.9 742.6 2439.3 1051 2749.2 741.1 3064.1 1056 3158.5 961.6"/>
                <polyline class="st50" points="1282.6 677.8 1441.7 677.8 1441.7 1068.8 1580.7 1068.8 1580.7 848.7 1687.8 848.7 1687.8 1068.8 1806.6 1068.8 1806.6 677.8 1977.4 677.8 1977.4 1068.8 2130.9 1068.8 2130.9 764.7 2439.3 1073.1 2749.2 763.2 3064.1 1078.2 3158.5 983.7"/>
                <polyline class="st53" points="1282.6 699.9 1441.7 699.9 1441.7 1090.9 1580.7 1090.9 1580.7 870.8 1687.8 870.8 1687.8 1090.9 1806.6 1090.9 1806.6 699.9 1977.4 699.9 1977.4 1090.9 2130.9 1090.9 2130.9 786.8 2439.3 1095.2 2749.2 785.4 3064.1 1100.3 3158.5 1005.9"/>
                <polyline class="st51" points="1282.6 722 1441.7 722 1441.7 1113 1580.7 1113 1580.7 892.9 1687.8 892.9 1687.8 1113 1806.6 1113 1806.6 722 1977.4 722 1977.4 1113 2130.9 1113 2130.9 808.9 2439.3 1117.3 2749.2 807.5 3064.1 1122.4 3158.5 1028"/>
                <polyline class="st47" points="1282.6 744.2 1441.7 744.2 1441.7 1135.1 1580.7 1135.1 1580.7 915 1687.8 915 1687.8 1135.1 1806.6 1135.1 1806.6 744.2 1977.4 744.2 1977.4 1135.1 2130.9 1135.1 2130.9 831 2439.3 1139.4 2749.2 829.6 3064.1 1144.5 3158.5 1050.1"/>
              </g>
            </g>
          </g>
        </g>
      </g>
      <g>
        <g>
          <g>
            <path class="st66" d="M1522.5,791.2h.6c-.4-2-1.1-3.9-2-5.7-.6-1.1-1.2-2.1-1.9-3h-.6c-1.2-1.6-2.7-3.1-4.4-4.3-.6-.4-1.1-.8-1.7-1.1h1.1c-3.2-1.9-6.9-3-10.9-3h-1.1c-4,0-7.7,1.1-10.9,3-.6.3-1.2.7-1.7,1.1h-.6c-1.7,1.2-3.1,2.7-4.4,4.3h.6c-.7,1-1.4,2-1.9,3h.5c-.9,1.8-1.6,3.7-2,5.7h-.5c-.1.6-.2,1.2-.3,1.8h-.2c0,.8-.1,1.6-.1,2.4,0,1.2,0,2.3.3,3.4h-.1c.1.8.3,1.6.5,2.4h.3c.6,2,1.4,3.9,2.5,5.6h.8c.2.4.5.8.8,1.1h-1.4c1.1,1.6,2.5,3,4,4.2h.3c2,1.6,4.2,2.8,6.6,3.6h.5c2.1.7,4.3,1.1,6.7,1.1s4.6-.4,6.7-1.1h-.5c2.4-.8,4.7-2,6.6-3.6h-.3c1.5-1.2,2.8-2.6,4-4.2h1.4c.3-.4.5-.7.8-1.1h-.8c1.1-1.7,1.9-3.6,2.5-5.6h-.3c.2-.8.4-1.6.5-2.4h.1c.2-1.1.3-2.2.3-3.4s0-1.6-.1-2.4h.2c0-.6-.2-1.2-.3-1.8h0ZM1510.6,806.8c-.2,0-.3,0-.5,0h-.8c-2.3-1.1-5.1-1.7-7.7-1.7s-5.4.6-7.7,1.7h.8c-.3.1-.6.1-.9,0h-.8c-.2-.1-.4-.3-.5-.5-.3-.6,0-1.2.5-1.4,2.6-1.2,5.7-1.9,8.6-1.9s6,.7,8.6,1.9c.6.3.8.9.5,1.4-.1.3-.3.4-.5.5h.8c-.1,0-.3,0-.5,0h0ZM1507.6,788.5c0-1.2.4-2.3,1.1-3h0c.3-.3.7-.6,1.2-.6.4,0,.8.3,1.2.6h.6c.7.7,1.1,1.8,1.1,3s-.3,2-.8,2.7h-.6c-.5.6-1.1.9-1.7.9s-1.3-.3-1.7-.9h.6c-.5-.7-.8-1.6-.8-2.7ZM1491.5,788.5c0-1.2.4-2.3,1.1-3h0c.3-.3.7-.6,1.2-.6.4,0,.8.3,1.2.6h.6c.7.7,1.1,1.8,1.1,3s-.3,2-.8,2.7h-.6c-.5.6-1.1.9-1.7.9s-1.3-.3-1.7-.9h.5c-.5-.7-.8-1.6-.8-2.7h0Z"/>
            <path class="st66" d="M1519.4,790.2h.6c-.4-2-1.1-3.9-2-5.7-.6-1.1-1.2-2.1-1.9-3h-.6c-1.2-1.6-2.7-3.1-4.4-4.3-.6-.4-1.1-.8-1.7-1.1h1.1c-3.2-1.9-6.9-3-10.9-3h-1.1c-4,0-7.7,1.1-10.9,3-.6.3-1.2.7-1.7,1.1h-.6c-1.7,1.2-3.1,2.7-4.4,4.3h.6c-.7,1-1.4,2-1.9,3h.5c-.9,1.8-1.6,3.7-2,5.7h-.5c-.1.6-.2,1.2-.3,1.8h-.2c0,.8-.1,1.6-.1,2.4,0,1.2,0,2.3.3,3.4h-.1c.1.8.3,1.6.5,2.4h.3c.6,2,1.4,3.9,2.5,5.6h.8c.2.4.5.8.8,1.1h-1.4c1.1,1.6,2.5,3,4,4.2h.3c2,1.6,4.2,2.8,6.6,3.6h.5c2.1.7,4.3,1.1,6.7,1.1s4.6-.4,6.7-1.1h-.5c2.4-.8,4.7-2,6.6-3.6h-.3c1.5-1.2,2.8-2.6,4-4.2h1.4c.3-.4.5-.7.8-1.1h-.8c1.1-1.7,1.9-3.6,2.5-5.6h-.3c.2-.8.4-1.6.5-2.4h.1c.2-1.1.3-2.2.3-3.4s0-1.6-.1-2.4h.2c0-.6-.2-1.2-.3-1.8h0Z"/>
          </g>
          <path class="st69" d="M1520.9,790.6h.6c-.4-2-1.1-3.9-2-5.7-.6-1.1-1.2-2.1-1.9-3h-.6c-1.2-1.6-2.7-3.1-4.4-4.3-.6-.4-1.1-.8-1.7-1.1h1.1c-3.2-1.9-6.9-3-10.9-3h-1.1c-4,0-7.7,1.1-10.9,3-.6.3-1.2.7-1.7,1.1h-.6c-1.7,1.2-3.1,2.7-4.4,4.3h.6c-.7,1-1.4,2-1.9,3h.5c-.9,1.8-1.6,3.7-2,5.7h-.5c-.1.6-.2,1.2-.3,1.8h-.2c0,.8-.1,1.6-.1,2.4,0,1.2,0,2.3.3,3.4h-.1c.1.8.3,1.6.5,2.4h.3c.6,2,1.4,3.9,2.5,5.6h.8c.2.4.5.8.8,1.1h-1.4c1.1,1.6,2.5,3,4,4.2h.3c2,1.6,4.2,2.8,6.6,3.6h.5c2.1.7,4.3,1.1,6.7,1.1s4.6-.4,6.7-1.1h-.5c2.4-.8,4.7-2,6.6-3.6h-.3c1.5-1.2,2.8-2.6,4-4.2h1.4c.3-.4.5-.7.8-1.1h-.8c1.1-1.7,1.9-3.6,2.5-5.6h-.3c.2-.8.4-1.6.5-2.4h.1c.2-1.1.3-2.2.3-3.4s0-1.6-.1-2.4h.2c0-.6-.2-1.2-.3-1.8h0ZM1509,806.2c-.2,0-.3,0-.5,0h-.8c-2.3-1.1-5.1-1.7-7.7-1.7s-5.4.6-7.7,1.7h.8c-.3.1-.6.1-.9,0h-.8c-.2-.1-.4-.3-.5-.5-.3-.6,0-1.2.5-1.4,2.6-1.2,5.7-1.9,8.6-1.9s6,.7,8.6,1.9c.6.3.8.9.5,1.4-.1.3-.3.4-.5.5h.8c-.1,0-.3,0-.5,0h0ZM1506,787.9c0-1.2.4-2.3,1.1-3h0c.3-.3.7-.6,1.2-.6.4,0,.8.3,1.2.6h.6c.7.7,1.1,1.8,1.1,3s-.3,2-.8,2.7h-.6c-.5.6-1.1.9-1.7.9s-1.3-.3-1.7-.9h.6c-.5-.7-.8-1.6-.8-2.7ZM1490,787.9c0-1.2.4-2.3,1.1-3h0c.3-.3.7-.6,1.2-.6.4,0,.8.3,1.2.6h.6c.7.7,1.1,1.8,1.1,3s-.3,2-.8,2.7h-.6c-.5.6-1.1.9-1.7.9s-1.3-.3-1.7-.9h.5c-.5-.7-.8-1.6-.8-2.7h0Z"/>
        </g>
        <g>
          <g>
            <path class="st0" d="M1522.4,773.9h0c-12.2-12.2-32-12.2-44.3,0h0c-12.2,12.2-12.2,32,0,44.3l22.1,22.1,22.1-22.1c12.2-12.2,12.2-32,0-44.3h0Z"/>
            <path class="st11" d="M1480.8,816.8c.1.1.3.3.4.4l19.2,19.2,18.9-18.9c.3-.6.4-1.1.4-1.7,0-2.1-1.6-4.2-3.7-4.5-1.8-.3-3.7.6-5,1.8s-2.3,2.9-3.4,4.4c-1.7,2.4-3.6,4.6-6.2,6.1-2.5,1.5-5.6,2.1-8.4,1.2-3.8-1.3-6.1-5.1-9.5-7.3-.8-.5-1.8-.9-2.8-.8h0Z"/>
            <g class="st67">
              <path class="st37" d="M1500.3,841.9l-22.9-22.9c-6.1-6.1-9.5-14.3-9.5-22.9s3.4-16.8,9.5-22.9c6.1-6.1,14.3-9.5,22.9-9.5s16.8,3.4,22.9,9.5l-.5.5.5-.5c6.1,6.1,9.5,14.3,9.5,22.9s-3.4,16.8-9.5,22.9c0,0-22.9,22.9-22.9,22.9ZM1500.3,765c-8.3,0-16.1,3.2-21.9,9.1-12.1,12.1-12.1,31.7,0,43.8l21.9,21.9,21.9-21.9c12.1-12.1,12.1-31.7,0-43.8-5.8-5.8-13.6-9.1-21.9-9.1Z"/>
            </g>
            <path class="st26" d="M1527.6,795.5c0,1.1,0,2.2-.2,3.3-1.3-3.4-3.6-6.4-6.6-8.4-6.1-4-14.7-3.7-20.5.8-3.3,2.5-5.5,6.1-8.3,9.1-2.7,2.9-6.4,5.6-10.6,5.3-3.4-.3-6.5-2.7-7.9-5.9-3.3-7.2,1.3-17.2,6.2-22.7,5.2-5.7,12.7-9,20.4-9,15.2,0,27.5,12.3,27.5,27.5Z"/>
          </g>
          <circle class="st10" cx="1474.5" cy="779.1" r="12.6"/>
        </g>
      </g>
      <g>
        <g>
          <g>
            <g>
              <rect class="st66" x="1619.2" y="577.5" width="1.6" height="1.6"/>
              <rect class="st66" x="1615.6" y="575.8" width="1.6" height="1.6"/>
              <polygon class="st66" points="1617.2 575.8 1617.2 575.8 1618.9 575.8 1618.9 575.8 1618.9 574.2 1617.2 574.2 1617.2 575.8"/>
              <rect class="st66" x="1620.9" y="575.8" width="1.6" height="1.6"/>
              <polygon class="st66" points="1620.5 573.9 1620.5 572.6 1618.9 572.6 1618.9 573.9 1618.9 574.2 1620.5 574.2 1620.5 573.9"/>
              <rect class="st66" x="1641.5" y="577.5" width="1.6" height="1.6"/>
              <rect class="st66" x="1643.1" y="575.8" width="1.6" height="1.6"/>
              <polygon class="st66" points="1639.4 575.8 1639.4 575.8 1641.1 575.8 1641.1 575.8 1641.1 574.2 1639.4 574.2 1639.4 575.8"/>
              <rect class="st66" x="1637.8" y="575.8" width="1.6" height="1.6"/>
              <polygon class="st66" points="1642.7 573.9 1642.7 572.6 1641.1 572.6 1641.1 573.9 1641.1 574.2 1642.7 574.2 1642.7 573.9"/>
              <path class="st66" d="M1651.3,580.5v-4.7h.3v-2h-.3v-2.6c0-1.5-1.2-2.7-2.7-2.7h-.4c-.2-.4-.4-.7-.6-1.1h.8c-.9-1.5-2-2.8-3.3-4-1.4-1.4-3.1-2.6-4.9-3.5h0c-1.1-.6-2.3-1.1-3.6-1.4h-.8c-1.9-.6-3.8-.8-5.8-.8s-4,.3-5.8.8h.8c-1.2.4-2.5.8-3.6,1.4h0c-1.8.9-3.4,2.1-4.9,3.5-1.2,1.2-2.3,2.5-3.3,4h-.8c-.2.3-.4.7-.6,1.1h-.4c-1.5,0-2.7,1.2-2.7,2.7v2.6h.3v2h-.3v4.7h.6v.6c0,1,.6,1.9,1.4,2.4.2.9.5,1.8.9,2.6h-.6c.2.5.4,1,.6,1.4h.2c.7,1.3,1.5,2.6,2.4,3.8h-.4c1.7,2.1,3.7,3.8,6.1,5.1h.5c3,1.7,6.4,2.6,10,2.6s7.1-.9,10-2.6h-.5c2.3-1.3,4.4-3.1,6.1-5.1h.4c.9-1.1,1.7-2.4,2.4-3.8h-.2c.2-.5.5-.9.6-1.4h.6c.3-.8.6-1.7.9-2.6.8-.5,1.4-1.4,1.4-2.4v-.6h-.7ZM1651.2,581c0,.4-.1.8-.4,1.2,0,0,0,.1-.1.2h0s0,.1-.2.2h0c-.1.1-.3.2-.4.3h0c0,0-.1,0-.2,0,0,0,0,0,0,0,0,0-.1,0-.2,0,0,0,0,0,0,0,0,0-.1,0-.2,0h-12.4c-.4,0-.8-.1-1.1-.3l-3.3-2.2h-.3l-.9-.6c-.3-.2-.7-.3-1.1-.3s-.8.1-1.1.3l-.9.6h.3l-3.3,2.2c-.3.2-.7.3-1.1.3h-12.4s-.1,0-.2,0c0,0,0,0,0,0,0,0-.1,0-.2,0,0,0,0,0,0,0,0,0-.1,0-.2,0h0c-.1,0-.3-.2-.4-.3h0s-.1,0-.2-.2h0c0,0,0-.1-.1-.2-.2-.3-.4-.7-.4-1.2v-.6h-.6v-4.7h.3v-2h-.3v-2.6c0-1.1.9-2,2-2h37.2c1.1,0,2,.9,2,2v2.6h.3v2h-.3v4.7h.6v.6h0Z"/>
            </g>
            <g>
              <rect class="st66" x="1616.5" y="576.5" width="1.6" height="1.6"/>
              <rect class="st66" x="1612.8" y="574.9" width="1.6" height="1.6"/>
              <polygon class="st66" points="1614.5 574.9 1614.5 574.9 1616.1 574.9 1616.1 574.9 1616.1 573.3 1614.5 573.3 1614.5 574.9"/>
              <rect class="st66" x="1618.1" y="574.9" width="1.6" height="1.6"/>
              <polygon class="st66" points="1617.7 572.9 1617.7 571.6 1616.1 571.6 1616.1 572.9 1616.1 573.3 1617.7 573.3 1617.7 572.9"/>
              <rect class="st66" x="1638.7" y="576.5" width="1.6" height="1.6"/>
              <rect class="st66" x="1640.3" y="574.9" width="1.6" height="1.6"/>
              <polygon class="st66" points="1636.7 574.9 1636.7 574.9 1638.3 574.9 1638.3 574.9 1638.3 573.3 1636.7 573.3 1636.7 574.9"/>
              <rect class="st66" x="1635" y="574.9" width="1.6" height="1.6"/>
              <polygon class="st66" points="1639.9 572.9 1639.9 571.6 1638.3 571.6 1638.3 572.9 1638.3 573.3 1639.9 573.3 1639.9 572.9"/>
              <path class="st66" d="M1648.5,579.5v-4.7h.3v-2h-.3v-2.6c0-1.5-1.2-2.7-2.7-2.7h-.4c-.2-.4-.4-.7-.6-1.1h.8c-.9-1.5-2-2.8-3.3-4-1.4-1.4-3.1-2.6-4.9-3.5h0c-1.1-.6-2.3-1.1-3.6-1.4h-.8c-1.9-.6-3.8-.8-5.8-.8s-4,.3-5.8.8h.8c-1.2.4-2.5.8-3.6,1.4h0c-1.8.9-3.4,2.1-4.9,3.5-1.2,1.2-2.3,2.5-3.3,4h-.8c-.2.3-.4.7-.6,1.1h-.4c-1.5,0-2.7,1.2-2.7,2.7v2.6h.3v2h-.3v4.7h.6v.6c0,1,.6,1.9,1.4,2.4.2.9.5,1.8.9,2.6h-.6c.2.5.4,1,.6,1.4h.2c.7,1.3,1.5,2.6,2.4,3.8h-.4c1.7,2.1,3.7,3.8,6.1,5.1h.5c3,1.7,6.4,2.6,10,2.6s7.1-.9,10-2.6h-.5c2.3-1.3,4.4-3.1,6.1-5.1h.4c.9-1.1,1.7-2.4,2.4-3.8h-.2c.2-.5.5-.9.6-1.4h.6c.3-.8.6-1.7.9-2.6.8-.5,1.4-1.4,1.4-2.4v-.6h-.7ZM1633,590.3c-1.9.6-4,.9-6,.9s-4.1-.3-6-.9h.4c-.8-.3-1.6-.6-2.3-.9-.5-.2-.8-.9-.5-1.4.2-.5.9-.8,1.4-.5,2.3,1,4.9,1.6,7.5,1.6s5.2-.6,7.5-1.6c.5-.2,1.2,0,1.4.5.3.5,0,1.2-.5,1.4-.7.3-1.5.6-2.3.9h-.4ZM1648.4,580.1c0,.4-.1.8-.4,1.2,0,0,0,.1-.1.2h0s0,.1-.2.2h0c-.1.1-.3.2-.4.3h0c0,0-.1,0-.2,0,0,0,0,0,0,0,0,0-.1,0-.2,0,0,0,0,0,0,0,0,0-.1,0-.2,0h-12.4c-.4,0-.8-.1-1.1-.3l-3.3-2.2h-.3l-.9-.6c-.3-.2-.7-.3-1.1-.3s-.8.1-1.1.3l-.9.6h.3l-3.3,2.2c-.3.2-.7.3-1.1.3h-12.4s-.1,0-.2,0c0,0,0,0,0,0,0,0-.1,0-.2,0,0,0,0,0,0,0,0,0-.1,0-.2,0h0c-.1,0-.3-.2-.4-.3h0s-.1-.1-.2-.2h0c0,0,0-.1-.1-.2-.2-.3-.4-.7-.4-1.2v-.6h-.6v-4.7h.3v-2h-.3v-2.6c0-1.1.9-2,2-2h37.2c1.1,0,2,.9,2,2v2.6h.3v2h-.3v4.7h.6v.6h0Z"/>
            </g>
          </g>
          <g>
            <rect class="st69" x="1617.7" y="576.8" width="1.6" height="1.6"/>
            <rect class="st69" x="1614.1" y="575.2" width="1.6" height="1.6"/>
            <polygon class="st69" points="1615.7 575.2 1615.7 575.2 1617.3 575.2 1617.3 575.2 1617.3 573.6 1615.7 573.6 1615.7 575.2"/>
            <rect class="st69" x="1619.4" y="575.2" width="1.6" height="1.6"/>
            <polygon class="st69" points="1617.3 573.2 1617.3 573.6 1619 573.6 1619 573.2 1619 572 1617.3 572 1617.3 573.2"/>
            <rect class="st69" x="1639.9" y="576.8" width="1.6" height="1.6"/>
            <rect class="st69" x="1641.5" y="575.2" width="1.6" height="1.6"/>
            <polygon class="st69" points="1637.9 575.2 1637.9 575.2 1639.5 575.2 1639.5 575.2 1639.5 573.6 1637.9 573.6 1637.9 575.2"/>
            <rect class="st69" x="1636.3" y="575.2" width="1.6" height="1.6"/>
            <polygon class="st69" points="1639.5 573.2 1639.5 573.6 1641.2 573.6 1641.2 573.2 1641.2 572 1639.5 572 1639.5 573.2"/>
            <path class="st69" d="M1649.7,579.9v-4.7h.3v-2h-.3v-2.6c0-1.5-1.2-2.7-2.7-2.7h-.4c-.2-.4-.4-.7-.6-1.1h.8c-.9-1.5-2-2.8-3.3-4-1.4-1.4-3.1-2.6-4.9-3.5h0c-1.1-.6-2.3-1.1-3.6-1.4h-.8c-1.9-.6-3.8-.8-5.8-.8s-4,.3-5.8.8h.8c-1.2.4-2.5.8-3.6,1.4h0c-1.8.9-3.4,2.1-4.9,3.5-1.2,1.2-2.3,2.5-3.3,4h-.8c-.2.3-.4.7-.6,1.1h-.4c-1.5,0-2.7,1.2-2.7,2.7v2.6h.3v2h-.3v4.7h.6v.6c0,1,.6,1.9,1.4,2.4.2.9.5,1.8.9,2.6h-.6c.2.5.4,1,.6,1.4h.2c.7,1.3,1.5,2.6,2.4,3.8h-.4c1.7,2.1,3.7,3.8,6.1,5.1h.5c3,1.7,6.4,2.6,10,2.6s7.1-.9,10-2.6h-.5c2.3-1.3,4.4-3.1,6.1-5.1h.4c.9-1.1,1.7-2.4,2.4-3.8h-.2c.2-.5.5-.9.6-1.4h.6c.3-.8.6-1.7.9-2.6.8-.5,1.4-1.4,1.4-2.4v-.6h-.7ZM1636.9,589.7c-.7.3-1.5.6-2.3.9h-.4c-1.9.6-4,.9-6,.9s-4.1-.3-6-.9h.4c-.8-.3-1.6-.6-2.3-.9-.5-.2-.8-.9-.5-1.4.2-.5.9-.8,1.4-.5,2.3,1,4.9,1.6,7.5,1.6s5.2-.6,7.5-1.6c.5-.2,1.2,0,1.4.5.3.5,0,1.2-.5,1.4h0ZM1649.7,580.4c0,.4-.1.8-.4,1.2,0,0,0,.1-.1.2h0s0,.1-.2.2h0c-.1.1-.3.2-.4.3h0c0,0-.1,0-.2,0,0,0,0,0,0,0,0,0-.1,0-.2,0,0,0,0,0,0,0,0,0-.1,0-.2,0h-12.4c-.4,0-.8-.1-1.1-.3l-3.3-2.2h-.3l-.9-.6c-.3-.2-.7-.3-1.1-.3s-.8.1-1.1.3l-.9.6h.3l-3.3,2.2c-.3.2-.7.3-1.1.3h-12.4s-.1,0-.2,0c0,0,0,0,0,0,0,0-.1,0-.2,0,0,0,0,0,0,0,0,0-.1,0-.2,0h0c-.1,0-.3-.2-.4-.3h0s-.1-.1-.2-.2h0c0,0,0-.1-.1-.2-.2-.3-.4-.7-.4-1.2v-.6h-.6v-4.7h.3v-2h-.3v-2.6c0-1.1.9-2,2-2h37.2c1.1,0,2,.9,2,2v2.6h.3v2h-.3v4.7h.6v.6h0Z"/>
          </g>
        </g>
        <g>
          <g>
            <path class="st9" d="M1651.2,557.5h0c-12.2-12.2-32-12.2-44.3,0h0c-12.2,12.2-12.2,32,0,44.3l22.1,22.1,22.1-22.1c12.2-12.2,12.2-32,0-44.3h0Z"/>
            <path class="st6" d="M1609.6,600.3c.1.1.3.3.4.4l19.2,19.2,18.9-18.9c.3-.6.4-1.1.4-1.7,0-2.1-1.6-4.2-3.7-4.5-1.8-.3-3.7.6-5,1.8s-2.3,2.9-3.4,4.4c-1.7,2.4-3.6,4.6-6.2,6.1-2.5,1.5-5.6,2.1-8.4,1.2-3.8-1.3-6.1-5.1-9.5-7.3-.8-.5-1.8-.9-2.8-.8h0Z"/>
            <g class="st67">
              <path class="st24" d="M1629.1,625.4l-22.9-22.9c-6.1-6.1-9.5-14.3-9.5-22.9s3.4-16.8,9.5-22.9c6.1-6.1,14.3-9.5,22.9-9.5s16.8,3.4,22.9,9.5l-.5.5.5-.5c6.1,6.1,9.5,14.3,9.5,22.9s-3.4,16.8-9.5,22.9l-22.9,22.9ZM1629.1,548.6c-8.3,0-16.1,3.2-21.9,9.1-12.1,12.1-12.1,31.7,0,43.8l21.9,21.9,21.9-21.9c12.1-12.1,12.1-31.7,0-43.8-5.8-5.8-13.6-9.1-21.9-9.1Z"/>
            </g>
            <path class="st34" d="M1656.4,579c0,1.1,0,2.2-.2,3.3-1.3-3.4-3.6-6.4-6.6-8.4-6.1-4-14.7-3.7-20.5.8-3.3,2.5-5.5,6.1-8.3,9.1-2.7,2.9-6.4,5.6-10.6,5.3-3.4-.3-6.5-2.7-7.9-5.9-3.3-7.2,1.3-17.2,6.2-22.7,5.2-5.7,12.7-9,20.4-9,15.2,0,27.5,12.3,27.5,27.5h0Z"/>
          </g>
          <circle class="st19" cx="1603.3" cy="562.6" r="12.6"/>
        </g>
      </g>
    </g>
  </g>
</svg>