<?xml version="1.0" encoding="UTF-8"?>
<svg id="Layer_1" xmlns="http://www.w3.org/2000/svg" version="1.1" viewBox="0 0 595.28 485">
  <!-- Generator: Adobe Illustrator 29.0.1, SVG Export Plug-In . SVG Version: 2.1.0 Build 192)  -->
  <defs>
    <style>
      .st0 {
        fill: #ed662a;
      }
    </style>
  </defs>
  <path class="st0" d="M212.12,205.02l-42.22-80.64c-1.35-2.59-4.03-4.21-6.95-4.21h-65.82c-5.9,0-9.68,6.26-6.95,11.49l84.71,161.48c.59,1.12.9,2.37.9,3.64v60.2c0,4.33,3.5,7.85,7.84,7.84l61.86-.03c4.33,0,7.84-3.51,7.84-7.84v-11.05c0-1.27-.31-2.52-.9-3.64l-52.31-99.72c-1.19-2.28-1.2-5,0-7.28l12.01-22.98c1.19-2.28,1.19-4.99,0-7.27Z"/>
  <path class="st0" d="M400.32,120.17h-103.26c-2.91,0-5.58,1.61-6.94,4.18l-48.26,91.48c-2.75,5.22,1.02,11.49,6.92,11.5l82.52.14c2.92,0,5.61-1.62,6.96-4.21l15.19-29.03c1.35-2.58,4.03-4.2,6.94-4.21l137.65-.1c4.33,0,7.84-3.51,7.84-7.84v-38.49c0-9.74-8.01-21.71-22.36-23.43h-83.21Z"/>
  <path class="st0" d="M407.97,273.63h12.89c4.33,0,7.84,3.51,7.84,7.84v5.59c0,4.33-3.51,7.84-7.84,7.84h-59.19c-2.91,0-5.59-1.61-6.94-4.19l-16.07-30.56c-1.36-2.58-4.03-4.19-6.94-4.19h-79.97c-5.9,0-9.69,6.26-6.94,11.49l42.62,81.17s7.42,16.18,27.82,16.18h182.92c4.33,0,7.84-3.51,7.84-7.84v-131.01c0-4.33-3.51-7.84-7.84-7.84h-90.18c-4.33,0-7.84,3.51-7.84,7.84v39.85c0,4.33,3.51,7.84,7.84,7.84Z"/>
</svg>