<svg version="1.1" xmlns="http://www.w3.org/2000/svg" width="512px" height="512px" transform="rotate(0) scale(1, 1)">
<path d="M0 0 C1.35158802 -0.00187153 2.70317549 -0.00417359 4.05476213 -0.00686532 C7.7448625 -0.0129474 11.43494011 -0.01285399 15.12504435 -0.01167095 C19.11427053 -0.01146603 23.10348958 -0.01699436 27.0927124 -0.02172852 C34.89928878 -0.03001579 42.70585761 -0.03278248 50.51243803 -0.03334089 C56.86124161 -0.03381695 63.21004272 -0.03587615 69.55884552 -0.03904152 C87.57955533 -0.04784268 105.6002592 -0.05246171 123.62097117 -0.05171105 C125.07657476 -0.05165111 125.07657476 -0.05165111 126.56158447 -0.05158997 C128.0189759 -0.05152864 128.0189759 -0.05152864 129.50580958 -0.05146609 C145.24818464 -0.05105972 160.99053578 -0.06062825 176.73290393 -0.07472833 C192.91732742 -0.08910938 209.10173925 -0.09599757 225.28616929 -0.09513456 C234.36435091 -0.09480319 243.44250744 -0.09752362 252.52068329 -0.10831261 C260.25023945 -0.11744035 267.97975914 -0.11957421 275.70931837 -0.11280318 C279.64826609 -0.1095495 283.58714393 -0.10943942 287.5260849 -0.11815643 C291.14095378 -0.12607357 294.75569798 -0.12453745 298.37056401 -0.1158723 C300.27845152 -0.11363407 302.18634306 -0.12112479 304.09421515 -0.12911195 C320.46469941 -0.06444905 335.7714318 2.00598424 348.43951416 13.13371277 C349.10595947 13.68414246 349.77240479 14.23457214 350.45904541 14.80168152 C360.72588384 24.00846398 365.43869003 37.66196162 366.43951416 51.13371277 C366.57944701 55.64168425 366.57881892 60.14672459 366.57322693 64.65660095 C366.57509783 66.0162882 366.57739964 67.37597492 366.58009225 68.73566079 C366.58618212 72.45275423 366.58607999 76.16982508 366.58489788 79.88692236 C366.58469316 83.90341376 366.59021941 87.91989805 366.59495544 91.93638611 C366.60324707 99.79824364 366.60600961 107.66009368 366.60656782 115.52195522 C366.60704368 121.9151277 366.60910192 128.30829772 366.61226845 134.70146942 C366.6210709 152.84382809 366.62568845 170.98618086 366.62493797 189.12854168 C366.62487804 190.59434844 366.62487804 190.59434844 366.62481689 192.08976746 C366.62477601 193.06817078 366.62473513 194.04657411 366.62469301 195.05462602 C366.62428664 210.9076711 366.63385502 226.76069243 366.64795526 242.61373064 C366.66233288 258.90772883 366.66922468 275.20171545 366.66836149 291.49572015 C366.66803 300.63704193 366.6707559 309.77833879 366.68153954 318.91965485 C366.69066278 326.70306253 366.69280482 334.48643401 366.68603011 342.26984474 C366.68277413 346.23701516 366.68267476 350.20411617 366.69138336 354.17127991 C366.69929022 357.81080842 366.69777463 361.45021299 366.68909923 365.08973864 C366.68685673 367.0133251 366.69435988 368.93691553 366.70233887 370.86048675 C366.63933608 386.88730481 364.30747625 401.76135497 353.43951416 414.13371277 C352.61386963 415.13338074 352.61386963 415.13338074 351.77154541 416.15324402 C342.22811584 426.79549064 328.3331853 431.18028072 314.43951416 432.13371277 C309.91888683 432.27041552 305.40147775 432.27308467 300.87902832 432.26742554 C299.5274403 432.26929707 298.17585283 432.27159913 296.8242662 432.27429086 C293.13416582 432.28037294 289.44408821 432.28027953 285.75398397 432.27909648 C281.76475779 432.27889157 277.77553874 432.28441989 273.78631592 432.28915405 C265.97973954 432.29744132 258.17317071 432.30020802 250.36659029 432.30076643 C244.01778671 432.30124248 237.6689856 432.30330169 231.3201828 432.30646706 C213.29947299 432.31526822 195.27876912 432.31988725 177.25805715 432.31913658 C175.80245356 432.31907665 175.80245356 432.31907665 174.31744385 432.3190155 C172.86005242 432.31895418 172.86005242 432.31895418 171.37321874 432.31889162 C155.63084368 432.31848526 139.88849254 432.32805379 124.14612439 432.34215387 C107.9617009 432.35653492 91.77728907 432.36342311 75.59285903 432.36256009 C66.51467741 432.36222873 57.43652088 432.36494916 48.35834503 432.37573814 C40.62878887 432.38486589 32.89926918 432.38699975 25.16970995 432.38022872 C21.23076223 432.37697503 17.29188439 432.37686496 13.35294342 432.38558197 C9.73807454 432.3934991 6.12333034 432.39196299 2.50846431 432.38329784 C0.6005768 432.38105961 -1.30731474 432.38855033 -3.21518683 432.39653748 C-19.58567109 432.33187459 -34.89240348 430.2614413 -47.56048584 419.13371277 C-48.22693115 418.58328308 -48.89337646 418.03285339 -49.58001709 417.46574402 C-59.84685552 408.25896156 -64.55966171 394.60546391 -65.56048584 381.13371277 C-65.70041869 376.62574129 -65.6997906 372.12070095 -65.69419861 367.61082458 C-65.69606951 366.25113733 -65.69837132 364.89145062 -65.70106393 363.53176475 C-65.7071538 359.81467131 -65.70705167 356.09760046 -65.70586956 352.38050318 C-65.70566484 348.36401177 -65.71119109 344.34752749 -65.71592712 340.33103943 C-65.72421875 332.46918189 -65.72698129 324.60733186 -65.7275395 316.74547032 C-65.72801536 310.35229783 -65.7300736 303.95912782 -65.73324013 297.56595612 C-65.74204258 279.42359745 -65.74666013 261.28124468 -65.74590965 243.13888386 C-65.7458697 242.16167935 -65.74582974 241.18447485 -65.74578857 240.17765808 C-65.74574769 239.19925476 -65.74570681 238.22085143 -65.74566469 237.21279952 C-65.74525832 221.35975443 -65.7548267 205.50673311 -65.76892694 189.6536949 C-65.78330456 173.3596967 -65.79019636 157.06571009 -65.78933316 140.77170539 C-65.78900168 131.63038361 -65.79172758 122.48908674 -65.80251122 113.34777069 C-65.81163446 105.564363 -65.8137765 97.78099153 -65.80700179 89.9975808 C-65.80374581 86.03041038 -65.80364644 82.06330936 -65.81235504 78.09614563 C-65.8202619 74.45661711 -65.81874631 70.81721255 -65.81007091 67.1776869 C-65.80782841 65.25410044 -65.81533156 63.33051001 -65.82331055 61.40693879 C-65.76030776 45.38012073 -63.42844793 30.50607057 -52.56048584 18.13371277 C-51.73484131 17.1340448 -51.73484131 17.1340448 -50.89251709 16.11418152 C-37.63536168 1.33061589 -18.55307152 -0.02321624 0 0 Z M-36.56048584 32.13371277 C-43.48939953 41.20597043 -43.85466448 49.61424439 -43.82791138 60.73326111 C-43.83165062 62.1256479 -43.83625324 63.5180326 -43.84164202 64.91041398 C-43.85385364 68.72711793 -43.85361373 72.54373411 -43.85125327 76.36045313 C-43.85084464 80.4805654 -43.86188871 84.60064971 -43.87136841 88.7207489 C-43.88796942 96.78942599 -43.89347755 104.85807386 -43.89459316 112.9267666 C-43.89554409 119.48686464 -43.8996566 126.04695305 -43.90599442 132.60704803 C-43.92360456 151.21405819 -43.93283367 169.82104529 -43.93133347 188.42806384 C-43.93125355 189.43082056 -43.93117364 190.43357729 -43.93109131 191.46672058 C-43.93100955 192.47070445 -43.93092779 193.47468832 -43.93084355 194.50909594 C-43.93003077 210.77750658 -43.94916703 227.04582462 -43.97736804 243.31420848 C-44.00610906 260.0262432 -44.01990766 276.73823277 -44.01818049 293.45029283 C-44.017517 302.82970736 -44.02299139 312.20902481 -44.04453659 321.58841705 C-44.06276443 329.57471427 -44.06708258 337.5608704 -44.05351774 345.54717943 C-44.0469961 349.61947545 -44.04684161 353.69150092 -44.06422424 357.76377106 C-44.07999597 361.49715242 -44.07705007 365.23004962 -44.05965598 368.96341947 C-44.05515319 370.94227429 -44.0702112 372.92114438 -44.08613527 374.89994025 C-44.00941188 384.86802064 -42.353098 394.18687581 -35.25970459 401.63761902 C-25.97169542 409.81533743 -16.9261866 410.4299275 -4.9609375 410.40113831 C-3.56855071 410.40487755 -2.17616601 410.40948016 -0.78378463 410.41486895 C3.03291932 410.42708057 6.8495355 410.42684066 10.66625452 410.4244802 C14.78636679 410.42407157 18.9064511 410.43511564 23.02655029 410.44459534 C31.09522739 410.46119635 39.16387525 410.46670448 47.232568 410.46782009 C53.79266603 410.46877102 60.35275444 410.47288353 66.91284943 410.47922134 C85.51985958 410.49683149 104.12684668 410.5060606 122.73386523 410.5045604 C123.73662196 410.50448048 124.73937868 410.50440057 125.77252197 410.50431824 C126.77650584 410.50423648 127.78048971 410.50415471 128.81489733 410.50407048 C145.08330797 410.50325769 161.35162601 410.52239396 177.62000987 410.55059497 C194.33204459 410.57933599 211.04403416 410.59313459 227.75609422 410.59140742 C237.13550875 410.59074393 246.5148262 410.59621832 255.89421844 410.61776352 C263.88051566 410.63599136 271.86667179 410.64030951 279.85298082 410.62674467 C283.92527684 410.62022303 287.99730231 410.62006854 292.06957245 410.63745117 C295.80295381 410.6532229 299.53585101 410.650277 303.26922086 410.63288291 C305.24807568 410.62838012 307.22694577 410.64343813 309.20574164 410.6593622 C319.17382203 410.5826388 328.4926772 408.92632493 335.94342041 401.83293152 C343.18497083 393.6081941 344.75368733 385.49132726 344.63482666 374.82511902 C344.63199677 373.85839767 344.62916687 372.89167633 344.62625122 371.8956604 C344.61511823 368.82904825 344.5900264 365.76273562 344.56451416 362.69621277 C344.55447547 360.60832638 344.54535117 358.52043539 344.53717041 356.43254089 C344.51520143 351.33281733 344.48071923 346.23331571 344.43951416 341.13371277 C343.88765945 341.38442032 343.33580475 341.63512787 342.76722717 341.89343262 C277.90263522 371.32473937 207.93957645 379.36446383 140.01373291 354.11759949 C124.30276363 348.31388305 114.26856882 351.43740294 99.18951416 358.00871277 C79.01839147 366.7840813 55.44443648 374.02157972 33.43951416 367.13371277 C30.18951416 365.07121277 30.18951416 365.07121277 28.43951416 362.13371277 C27.76253133 358.97254718 27.73761242 356.29227059 28.43951416 353.13371277 C31.39320958 348.98007858 34.99357867 347.26953381 39.45904541 345.14152527 C48.22089271 340.68283375 52.4169067 332.32306044 55.81451416 323.44621277 C57.94038694 316.40539481 58.79899135 309.40649874 57.43951416 302.13371277 C55.81214874 299.55740867 54.12750231 297.98652499 51.77545166 296.05949402 C22.71923429 272.10512083 5.39738022 226.97019596 -0.56048584 191.13371277 C-0.78478271 189.83562683 -1.00907959 188.53754089 -1.24017334 187.20011902 C-8.27343102 138.5935642 4.13292308 85.746551 33.43951416 46.13371277 C33.82317139 45.61164246 34.20682861 45.08957214 34.60211182 44.55168152 C39.66897428 37.69143491 45.00111181 31.20604746 50.82232666 24.96183777 C52.54994314 23.41567426 52.54994314 23.41567426 52.43951416 22.13371277 C43.37231111 22.04061134 34.3052752 21.96974583 25.23769665 21.92646408 C21.02623168 21.90568019 16.8150962 21.87753331 12.6038208 21.83195496 C8.53187684 21.78816553 4.46024776 21.76450668 0.38808632 21.7542038 C-1.1575077 21.74687127 -2.70308649 21.73255418 -4.24854469 21.71079254 C-16.37846007 21.54694328 -28.03531331 22.45107556 -36.56048584 32.13371277 Z M225.43951416 117.13371277 C221.80093808 121.67495909 222.01262613 125.87780777 222.05133057 131.43449402 C222.04607361 132.36353546 222.04081665 133.2925769 222.03540039 134.24977112 C222.0222154 137.31542357 222.0309333 140.38055519 222.04107666 143.44621277 C222.0390555 145.57943318 222.03614371 147.71265292 222.03237915 149.84587097 C222.02795783 154.31460657 222.03438082 158.78316217 222.04840088 163.25187683 C222.06549251 168.97859018 222.05565032 174.70488172 222.03768349 180.43157959 C222.02684057 184.8359342 222.03029436 189.24018888 222.03806686 193.64454651 C222.04006746 195.75605825 222.03761454 197.86757907 222.0306282 199.9790802 C222.02300553 202.93060829 222.03462971 205.88145421 222.05133057 208.83293152 C222.04525787 209.70477081 222.03918518 210.57661011 222.03292847 211.47486877 C222.08233962 216.19086944 222.38854682 219.30013522 225.43951416 223.13371277 C228.2902606 225.4451288 229.75345926 226.13371277 233.43951416 226.13371277 C237.19537175 224.88176024 238.92336196 223.15309541 241.43951416 220.13371277 C242.75875967 216.17597624 242.59527536 212.38600724 242.60064697 208.25944519 C242.60561188 207.35180923 242.61057678 206.44417328 242.61569214 205.5090332 C242.63031281 202.5024083 242.63711574 199.49583616 242.64263916 196.48918152 C242.64839084 194.40033975 242.65414857 192.31149799 242.65991211 190.22265625 C242.67042193 185.84038548 242.67626467 181.45813305 242.67974854 177.07585144 C242.68523216 171.46356095 242.70925758 165.8515132 242.73772049 160.23929882 C242.75635473 155.9232818 242.7615529 151.60732315 242.76308441 147.2912693 C242.76610986 145.2224374 242.77413472 143.15360649 242.78726959 141.08481407 C242.80434575 138.18841015 242.80244587 135.29259793 242.79595947 132.39616394 C242.80517426 131.54347931 242.81438904 130.69079468 242.82388306 129.81227112 C242.78909012 124.84653861 242.2003826 121.43284505 239.43951416 117.13371277 C234.35739856 113.22439308 230.54882744 113.33447982 225.43951416 117.13371277 Z M71.43951416 127.13371277 C68.99345711 130.80279834 68.60005014 133.86990046 69.43951416 138.13371277 C71.61525832 140.82476475 73.35017272 142.58904205 76.43951416 144.13371277 C79.06331729 144.2903216 81.66476268 144.39200357 84.29107666 144.45011902 C85.06510834 144.47090012 85.83914001 144.49168121 86.6366272 144.51309204 C89.11249808 144.57854725 91.58847618 144.63745363 94.06451416 144.69621277 C95.74160864 144.73940183 97.41869223 144.78301625 99.09576416 144.82707214 C103.21023724 144.93422448 107.3248183 145.03550322 111.43951416 145.13371277 C110.7472876 146.22683777 110.05506104 147.31996277 109.34185791 148.44621277 C102.94536782 158.55593368 96.56388616 168.67503895 90.253479 178.83879089 C86.94059352 184.16869661 83.58485771 189.46316868 80.15045166 194.71574402 C79.4560498 195.79058044 78.76164795 196.86541687 78.04620361 197.9728241 C76.71557633 200.03034607 75.37101032 202.07894213 74.01055908 204.11686707 C70.40368597 209.73288917 68.37360343 213.41547258 69.43951416 220.13371277 C71.97405073 223.35325922 73.55248721 224.83803712 77.43951416 226.13371277 C79.17673465 226.23634694 80.91757239 226.28217215 82.65777588 226.29484558 C83.72253143 226.30445313 84.78728699 226.31406067 85.88430786 226.32395935 C87.60933029 226.33033417 87.60933029 226.33033417 89.36920166 226.33683777 C90.55168488 226.34253784 91.73416809 226.34823792 92.95248413 226.35411072 C95.45580144 226.36356242 97.95913119 226.37009537 100.46246338 226.37394714 C104.29227377 226.38365639 108.12154842 226.41468057 111.95123291 226.44621277 C114.3822193 226.45274246 116.81320954 226.45799306 119.24420166 226.46183777 C120.9631514 226.48035797 120.9631514 226.48035797 122.71682739 226.49925232 C123.78788727 226.49625122 124.85894714 226.49325012 125.96246338 226.49015808 C126.90161591 226.49380371 127.84076843 226.49744934 128.80838013 226.50120544 C132.79535911 225.94434078 135.43999706 224.13322987 138.25201416 221.32121277 C140.16499162 217.79730692 139.89673232 214.73397634 138.81451416 210.94621277 C136.76271792 208.24157227 134.56500595 207.43194242 131.43951416 206.13371277 C128.69386062 205.82149032 126.1601019 205.64659498 123.41607666 205.62199402 C122.2968129 205.59506721 122.2968129 205.59506721 121.15493774 205.56759644 C118.79151926 205.51378172 116.4282993 205.4796921 114.06451416 205.44621277 C112.45380962 205.41301405 110.84313118 205.37852204 109.23248291 205.34269714 C105.30163729 205.25807258 101.37084757 205.19112533 97.43951416 205.13371277 C98.35748291 203.66496277 99.27545166 202.19621277 100.19342041 200.72746277 C100.79307617 199.76799744 101.39273193 198.8085321 102.01055908 197.81999207 C103.3557156 195.66777462 104.70093194 193.51559457 106.04620361 191.3634491 C109.4833659 185.86454775 112.91971939 180.3651477 116.35357666 174.86418152 C116.98054443 173.8605658 117.60751221 172.85695007 118.253479 171.82292175 C119.50053061 169.82494163 120.74565509 167.82575737 121.98883057 165.82536316 C124.95458313 161.06214904 127.95276731 156.32904982 131.04888916 151.64933777 C131.61132324 150.78993591 132.17375732 149.93053406 132.75323486 149.04508972 C133.80094973 147.44886438 134.86115271 145.86073357 135.93634033 144.28288269 C138.88236981 139.76993602 140.24510028 136.69771859 139.43951416 131.13371277 C137.65538382 127.59365969 135.22846741 125.39669718 131.43951416 124.13371277 C129.70758878 124.03110096 127.97203773 123.98525565 126.23712158 123.97257996 C124.64482979 123.95816864 124.64482979 123.95816864 123.02037048 123.94346619 C121.87349258 123.93921631 120.72661469 123.93496643 119.54498291 123.93058777 C118.36487137 123.9248877 117.18475983 123.91918762 115.96888733 123.91331482 C113.46976621 123.90386241 110.97063261 123.89732988 108.47149658 123.89347839 C104.65267115 123.88377794 100.83438501 123.85275801 97.01568604 123.82121277 C94.58795486 123.81468217 92.16021983 123.80943192 89.73248291 123.80558777 C88.5916777 123.79324097 87.4508725 123.78089417 86.27549744 123.76817322 C78.42653509 123.7711374 78.42653509 123.7711374 71.43951416 127.13371277 Z M146.94342041 169.91886902 C142.26201454 176.81330311 139.40593915 185.77652051 140.43951416 194.13371277 C142.85244409 205.38436195 147.51930075 214.16603418 157.06842041 220.84855652 C163.67360315 224.42863085 171.91932647 227.2080253 179.43951416 226.13371277 C182.80613805 225.09591255 186.13589607 224.00551904 189.45123291 222.81340027 C192.43951416 222.13371277 192.43951416 222.13371277 194.64654541 222.89152527 C195.2382251 223.30144714 195.82990479 223.71136902 196.43951416 224.13371277 C199.31599641 226.47355719 199.31599641 226.47355719 202.87701416 226.00871277 C206.73451279 225.06125697 208.06144149 224.2435001 210.43951416 221.13371277 C211.45623949 218.08353679 211.59002238 215.94320381 211.63238525 212.74772644 C211.65647964 211.09537239 211.65647964 211.09537239 211.68106079 209.40963745 C211.72554596 204.37683252 211.76656629 199.34415852 211.78961182 194.311203 C211.80618041 191.65649149 211.83348183 189.00182474 211.87164307 186.34733582 C211.92638592 182.51938233 211.94828237 178.69247364 211.96295166 174.86418152 C211.99695572 173.08735237 211.99695572 173.08735237 212.03164673 171.27462769 C212.12435435 164.38305665 212.12435435 164.38305665 209.11773682 158.40837097 C205.71312446 155.51677814 203.89975162 154.97991148 199.43951416 155.13371277 C198.36701416 155.85558777 197.29451416 156.57746277 196.18951416 157.32121277 C194.44342041 158.47355652 194.44342041 158.47355652 192.43951416 159.13371277 C189.56063769 158.42841021 186.99658178 157.3286532 184.26763916 156.17668152 C170.47025179 151.08841849 155.64002627 159.40626657 146.94342041 169.91886902 Z M262.43951416 166.13371277 C255.12099343 175.65339778 252.47761715 184.17870704 253.43951416 196.13371277 C255.2986761 206.99184345 261.66561138 214.75563584 270.43951416 221.13371277 C278.1402503 225.96497309 286.95371257 227.08995341 295.84576416 225.53996277 C306.65415536 222.61058571 314.66762806 216.76589568 320.43951416 207.13371277 C325.0248122 198.23284011 325.29857597 188.61704895 322.43951416 179.13371277 C319.1646276 169.96060119 312.86220098 163.06059849 304.25201416 158.63371277 C289.97429259 151.8971731 273.51183565 154.61595306 262.43951416 166.13371277 Z " fill="#ffffff" transform="translate(105.56048583984375,39.86628723144531)"/>
<path d="M0 0 C4.004793 2.0023965 6.6587028 4.17998877 9 8 C10.53752988 12.61258965 10.86704551 17.32051599 9.3515625 22.00390625 C7.41979663 25.82616093 4.9747635 28.39439168 1.05859375 30.33984375 C-4.38566887 32.08572683 -9.28850322 31.85574839 -14.375 29.3125 C-19.32875266 24.9484798 -21.64604896 21.90435431 -22.09765625 15.2734375 C-21.8797187 10.19985132 -19.75201319 6.86481517 -16.5 3.125 C-11.6891915 -0.96418723 -6.04016782 -0.63080436 0 0 Z " fill="#ffffff" transform="translate(400,215)"/>
<path d="M0 0 C4.86108919 2.29796944 7.70203056 5.13891081 10 10 C10.77379561 15.29813119 10.67768515 19.56643525 8.375 24.4375 C5.11430555 27.95561769 2.52137081 30.63452443 -2.3984375 31.34765625 C-7.63949638 31.52865378 -11.5807013 31.05142053 -16 28 C-20.67054337 22.82453302 -21.35784069 19.60395902 -21.27734375 12.76171875 C-20.75530128 7.56335214 -18.124202 5.04194332 -14.4375 1.625 C-9.56643525 -0.67768515 -5.29813119 -0.77379561 0 0 Z " fill="#ffffff" transform="translate(287,215)"/>
</svg>